<mxfile host="Electron" modified="2024-02-09T13:33:27.568Z" agent="Mozilla/5.0 (Windows NT 10.0; Win64; x64) AppleWebKit/537.36 (KHTML, like Gecko) draw.io/23.0.2 Chrome/120.0.6099.109 Electron/28.1.0 Safari/537.36" etag="517988Jq4pYKFrWIlmJs" version="23.0.2" type="device">
  <diagram name="Schema" id="F-MsDRfGFHNxRMOKlTHp">
    <mxGraphModel dx="819" dy="482" grid="1" gridSize="10" guides="1" tooltips="1" connect="1" arrows="1" fold="1" page="1" pageScale="1" pageWidth="827" pageHeight="1169" math="0" shadow="0">
      <root>
        <mxCell id="uWiy1Z3-CHDcQIck3Mmg-0" />
        <mxCell id="uWiy1Z3-CHDcQIck3Mmg-1" parent="uWiy1Z3-CHDcQIck3Mmg-0" />
        <mxCell id="uWiy1Z3-CHDcQIck3Mmg-2" value="OIP core" style="swimlane;fillColor=#BE0000;fontColor=#FFFFFF;" parent="uWiy1Z3-CHDcQIck3Mmg-1" vertex="1">
          <mxGeometry x="518.14" y="430" width="321.86" height="230" as="geometry" />
        </mxCell>
        <mxCell id="uWiy1Z3-CHDcQIck3Mmg-3" value="Draco" style="sketch=0;aspect=fixed;pointerEvents=1;shadow=0;dashed=0;html=1;strokeColor=none;labelPosition=center;verticalLabelPosition=bottom;verticalAlign=top;align=center;fillColor=#BE0000;shape=mxgraph.mscae.enterprise.application_blank;fontStyle=1;gradientColor=none;fontSize=10;" parent="uWiy1Z3-CHDcQIck3Mmg-2" vertex="1">
          <mxGeometry x="61.860000000000014" y="140" width="58.14" height="50" as="geometry" />
        </mxCell>
        <mxCell id="uWiy1Z3-CHDcQIck3Mmg-4" value="Orion Context Broker" style="sketch=0;aspect=fixed;pointerEvents=1;shadow=0;dashed=0;html=1;strokeColor=none;labelPosition=center;verticalLabelPosition=bottom;verticalAlign=top;align=center;fillColor=#BE0000;shape=mxgraph.mscae.enterprise.application_blank;fontStyle=1;gradientColor=none;fontSize=10;" parent="uWiy1Z3-CHDcQIck3Mmg-2" vertex="1">
          <mxGeometry x="61.860000000000014" y="40" width="58.14" height="50" as="geometry" />
        </mxCell>
        <mxCell id="uWiy1Z3-CHDcQIck3Mmg-5" value="PostgreSQL" style="sketch=0;aspect=fixed;pointerEvents=1;shadow=0;dashed=0;html=1;strokeColor=none;labelPosition=center;verticalLabelPosition=bottom;verticalAlign=top;align=center;fillColor=#BE0000;shape=mxgraph.mscae.enterprise.application_blank;fontStyle=1;gradientColor=none;fontSize=10;" parent="uWiy1Z3-CHDcQIck3Mmg-2" vertex="1">
          <mxGeometry x="217.78999999999996" y="40" width="58.14" height="50" as="geometry" />
        </mxCell>
        <mxCell id="uWiy1Z3-CHDcQIck3Mmg-6" value="MongoDB +&lt;br style=&quot;font-size: 10px;&quot;&gt;GridFS" style="sketch=0;aspect=fixed;pointerEvents=1;shadow=0;dashed=0;html=1;strokeColor=none;labelPosition=center;verticalLabelPosition=bottom;verticalAlign=top;align=center;fillColor=#BE0000;shape=mxgraph.mscae.enterprise.application_blank;fontStyle=1;gradientColor=none;fontSize=10;" parent="uWiy1Z3-CHDcQIck3Mmg-2" vertex="1">
          <mxGeometry x="217.78999999999996" y="140" width="58.14" height="50" as="geometry" />
        </mxCell>
        <mxCell id="uWiy1Z3-CHDcQIck3Mmg-7" value="" style="endArrow=classic;html=1;rounded=0;" parent="uWiy1Z3-CHDcQIck3Mmg-2" edge="1">
          <mxGeometry width="50" height="50" relative="1" as="geometry">
            <mxPoint x="90.86000000000001" y="140" as="sourcePoint" />
            <mxPoint x="90.63999999999999" y="110" as="targetPoint" />
          </mxGeometry>
        </mxCell>
        <mxCell id="uWiy1Z3-CHDcQIck3Mmg-8" value="" style="endArrow=classic;html=1;rounded=0;" parent="uWiy1Z3-CHDcQIck3Mmg-2" edge="1">
          <mxGeometry width="50" height="50" relative="1" as="geometry">
            <mxPoint x="121.86000000000001" y="150" as="sourcePoint" />
            <mxPoint x="211.86" y="90" as="targetPoint" />
          </mxGeometry>
        </mxCell>
        <mxCell id="uWiy1Z3-CHDcQIck3Mmg-9" value="" style="shape=image;verticalLabelPosition=bottom;labelBackgroundColor=default;verticalAlign=top;aspect=fixed;imageAspect=0;image=https://www.fiware.org/wp-content/uploads/2018/05/FW_VERT_noclaim_RGB-forms.png;" parent="uWiy1Z3-CHDcQIck3Mmg-2" vertex="1">
          <mxGeometry x="32.819999999999965" y="76" width="29.04" height="24" as="geometry" />
        </mxCell>
        <mxCell id="uWiy1Z3-CHDcQIck3Mmg-10" value="" style="shape=image;verticalLabelPosition=bottom;labelBackgroundColor=default;verticalAlign=top;aspect=fixed;imageAspect=0;image=https://www.fiware.org/wp-content/uploads/2018/05/FW_VERT_noclaim_RGB-forms.png;" parent="uWiy1Z3-CHDcQIck3Mmg-2" vertex="1">
          <mxGeometry x="31.85999999999997" y="176" width="29.04" height="24" as="geometry" />
        </mxCell>
        <mxCell id="uWiy1Z3-CHDcQIck3Mmg-11" value="" style="sketch=0;shadow=0;dashed=0;html=1;strokeColor=none;fillColor=#505050;labelPosition=center;verticalLabelPosition=bottom;verticalAlign=top;outlineConnect=0;align=center;shape=mxgraph.office.databases.database_mini_3;" parent="uWiy1Z3-CHDcQIck3Mmg-2" vertex="1">
          <mxGeometry x="275.92999999999995" y="170" width="24" height="30" as="geometry" />
        </mxCell>
        <mxCell id="uWiy1Z3-CHDcQIck3Mmg-12" value="" style="sketch=0;shadow=0;dashed=0;html=1;strokeColor=none;fillColor=#505050;labelPosition=center;verticalLabelPosition=bottom;verticalAlign=top;outlineConnect=0;align=center;shape=mxgraph.office.databases.database_mini_3;" parent="uWiy1Z3-CHDcQIck3Mmg-2" vertex="1">
          <mxGeometry x="275.92999999999995" y="70" width="24" height="30" as="geometry" />
        </mxCell>
        <mxCell id="_YNyTzP73_17Jnxu043o-9" value="" style="shape=image;verticalLabelPosition=bottom;labelBackgroundColor=default;verticalAlign=top;aspect=fixed;imageAspect=0;image=https://upload.wikimedia.org/wikipedia/commons/thumb/9/93/MongoDB_Logo.svg/1280px-MongoDB_Logo.svg.png;" parent="uWiy1Z3-CHDcQIck3Mmg-2" vertex="1">
          <mxGeometry x="221.86" y="160" width="50" height="13.46" as="geometry" />
        </mxCell>
        <mxCell id="_YNyTzP73_17Jnxu043o-10" value="" style="shape=image;verticalLabelPosition=bottom;labelBackgroundColor=default;verticalAlign=top;aspect=fixed;imageAspect=0;image=https://upload.wikimedia.org/wikipedia/commons/thumb/2/29/Postgresql_elephant.svg/993px-Postgresql_elephant.svg.png;" parent="uWiy1Z3-CHDcQIck3Mmg-2" vertex="1">
          <mxGeometry x="235.36" y="60" width="23" height="23.72" as="geometry" />
        </mxCell>
        <mxCell id="_YNyTzP73_17Jnxu043o-11" value="" style="shape=image;verticalLabelPosition=bottom;labelBackgroundColor=default;verticalAlign=top;aspect=fixed;imageAspect=0;image=data:image/png,iVBORw0KGgoAAAANSUhEUgAAAZAAAACYCAYAAADKm78VAAAACXBIWXMAABJ0AAASdAHeZh94AACbv0lEQVR4Xu19B2Bc1ZX2md6lUe/Nkiz33rDBmN47BALpjU2ybBZSIWU3lez+CdnskrKkbEhCIEDoHWzAuODebVm99xlN7+X/zn0zsiyrjGTJGHiPTCSPXrn3vHtPP98hkg+ZAjIFZArIFJApIFNApoBMAZkCMgVkCsgUkCkgU0CmgEwBmQIyBWQKyBSQKSBTQKaATAGZAjIFZArIFJApIFNApoBMAZkCMgVkCsgUkCkgU0CmgEwBmQIyBWQKyBSQKSBTQKaATAGZAjIFZArIFJApIFNApoBMAZkCMgVkCsgUkCkwnAKKDyM5mn1uZcAfMQUjUVOc1IZ4PK5UKSloMuhcVRaj68NIE3nOMgVkCsgUmCwFPjQCpKHXlnGguXF1t92+rNfhWBqIRPNcwWCmSqdPi4cjUWU85kszGhxZRmNnTlr68fzsrP3lRSW7082WwXydQhYqk11Z8vkyBWQKfOAp8IEXIEfdwcy9h4/fuP9o/ScG3M4F/qAvg2IxikXDFIuESAPTw2LUUzQaI6/XQ9G4gpRqLSmVyrhJb+qqqqxoXLt0yW8r8rNfL9WrBz7wK0KeoEwBmQIyBVKkwAdWgOzps1ccaWm98lBDy21dA/bVwXBUo4/HyWLQUW6mleZUlFGmNY2MWhWZTCaK4j+vP0C+QIj6HU7q6uyk/kEvuVweigcCsaqSor2La6qfmFtV8WRuhqXZpFDEU6SxfJpMAZkCMgU+kBT4QAmQ1phX2W1z1tQe7b/5WGfnzS2DfYtCyijB1KBMCIn1s6ppTnEx5ednkVGnJY2Sp89yIE6xxOuNUJgi0SiMlCj1uyPUY/NSS2MTNR2vJ4/bTcUFebVLlyz42/wFNQ+V6XW9H8hVIU9KpoBMAZkCKVDgAyNAdvfaqvbX1n2ysaPjavugf4nH76OYIkZWs4EWz5lNy+bNoQpLJunVRFHM2o9PREnkgevK7XJRDNYJHxqNirQaDen0GtKTmlT4LgIZ5PN5afe+vbR//37qcw7SwiULNl20YvW3K/MK9lhVqnAKtJZPkSkgU0CmwAeKAu97AbK72156uK7htoP19R9zhcILQ7AcNBAGerWKKsuLaf2KlVSclU56zFSHV+eDMHBFYtTpclOf20mOYJC0CiUp4vjwT2WclAoFfo9TmlZNVri8hKtLoxPCZMBmo3cP7qN3dmynNI2+bf3KNU+tWrDkZ+VZaZ0fqJUhT0amgEwBmQITUOB9K0C2tvbN3dfRevPRhubrnR7vsphKQWG4ntItelpSXk7zy8uoPC+HcrVaioAI+BM54mHqtA9Sp22QnAii+5UqCiuVZIjpIFyUFBcuLSKVSgUBAiESc5JeFWFBQTl6C2UZzZShM5E/FqbajnbatmcndbZ1RuaUznru2g2X3F2ZZ2mTV5xMAZkCMgU+LBR43wmQVxvbFxyqbf54S4/talcsMi8aDpIiGkJwXEuzK0toxcK5VJZlhvMJUQ34qpQqHflhO7T12am5v48CEBzigLCIitiHEn/VkEqhgcsLv0N4IAEL1ynwXRSnReHKUpI+jmC7Wk0WCKTc9AwE35Xk9vpp1559tPHNtyk7K/+d6y698Lur55a//WFZPPI8ZQrIFPhwU+B9I0A2tbQtPlDffHO73XmDwxOcHwjFSK2JwTrQUlVBLi2fW0mzivPB6oNkwDsNkYJ8YPq9Hh81dPaSzRugUDRIeq2OjBASelgYCHxAgMQpgN+jKggQiB2lEnEP+Krg0cK9YhAuECTxGGmR3quFxWKAkDFB+FiNBrJa0mCuKKmhqYWefPZZMmlV+6++4Pxfrl+66E8f7mUlz16mgEyBDwMFzmoB0uL3KJp7+qsOd3Z/tKG/71N2f7AiEFaQOqKgLJOBqvPNtKikmCpzcinPYsT7iuC/OIUjOmp0eKnW6aFWp4N8wQAsBgXlWNQ0KzuXcvXplAVLIhpE6m7ATw0+G/X5/ZAaenzUhNtDMEQhPGCRIBbCgkPDggRGDQwT1I4o8EFMBSnAVmR3oQCRWppq6dWNW8iFpK0bL1l/PwTan6xqbejDsIjkOcoUkCnw4aTAWSlA6kNR7dGOtnMPNzbd1Gtzrg8EgvMi0bBSAYvBojfS3JIymjerlEpy0sisN8BukA4fPh2IbzR3OKjbFyK/Du6rSACCIER5RjUtKCuiIks6WXGeGp4sFgZsabQiptHQ2082dwheL7UoJmQBwkWGbIGo+YPvNBBOLFQUSA1W4zo1JIpRr6dMi1nUk3R19dGLL79Ove2dnbdce+1/r1y86L8yNQpZiHw495Y8a5kCH3gKnHUC5NXmjvk7j9X9U7vDcb1HES9WoGrcBHdVmlZDuRYTrV20iGpK8uFGIrB1gsOKyIsMXCci5c29NuGucgbwF5MZqbowGSI+ylRHqTzdSGuqZlEWzoedgawr/B8+YZzSh5hHO1xc9Z195I0g/gHrRAFbhq0PtUIFYaEcEiCcqcXfc5YW/+QYiUGjppwMC4SZibq7OunRx56meEzRcfM1133nvDllD3/gV5E8QZkCMgU+lBQ4KwRIlyOgPdrdv2hPR+ftrb09F3vDwYURBCLCcBOloeBvcV4hzS8tpgpkVeXrlAR+T1FYI+54hPrggmqHu6p5wE0eCJFATIXsKg3x9XEIEE3ATYWaOC0vyqIF+RA8uBbGhVQ/iPvHIIjgvKI2X4wOdXSTPRQWAkSFe3NK72gCRGRoIQ7CQkSDULwG/9YpI2QGJEpmRia1dfXSc8++RJFAsOETt9zwlaUlRS99KFeXPGmZAjIFPtAUSHp/3pNJHg4GjLXNXSv+uH37Z+2+yPmuqKKMWTLFQpSNir+ykjyqKSukmoICykCQW4FgdhSM34M6j8FIkI72dlKX20vucJyccBQpYxwEZ9MkILKsWDoadQoywxWVBlcTT1YJhi/+wB+cw3JEg281qB/Bg4fowEJKWCkJEQvEXvyOe+Nc8SW7uXBCDL8DiRFOMhW5fQHgaDmorDCfLrvoPHrphZer/vqPZ+8/0mMbnJ+ftf09IbL8UJkCMgVkCswQBd4TAVIbj+oONTeu/9ubb37eEaL1vlA0Lxhis0JF6YgrVBcV0JoFNfiZI+IOejBpzpZi99EAigBb+gfoYFsr2eBm8kMsMPNGRAJWgJoAgwjXUhg1HBLF1OEAWdPSKNNoFLJApOomhAIzfz6N/6mBq4yzrViIRCEs+HoVhJFI1pJkjfie5RPHQYQJgwBKHMKDxxblE/GVw+NHIaOK5ldXU/ziMD3y1AuL/v7s8//ROmD7bFl2Vv0MvUf5tjIFZArIFDjjFDijAmSPL2RtbOtb/uQbuz/R5bJd6otG8zlrSg/GbzYoqSg7m5bD6phTwAWAOgqHo1D62ZUVJXswQh1ONx3vH6ReaPpelP7FVJw1hfgExAaSbEUabhC1HyoYICxE9Po45ZqMVJmXR+lwS/FkcUegXeEyMHu2MkTtIFxfRsCXmHRqskUjqBWJ4+8GCBsIGEgS/ItD5/idBQvECcbEh7BKxAFBwjUlSq51RyIxovlhZYyWzllAvit89PSLr5z32KYtDzYOer5cmWFuOONvWX6gTAGZAjIFZoACZ0SA7Bp0ZB/r7r/0qR2HPouq8QXRSCQ3ytXe4RBlgmlXF8JVBZDD6rxcygJv5gI/diiFAUcyCObeCqyqtp4+GvAGyYOgBdd3xAQT5zJAqV5D2BKwIBRg3CpNmIyQCiXmdJpXUkgmvZL6+X4hRtwNA9cKOFkQBHq4tQxGHVlxPzUKA3Os2XCH2cgdQgCdKQPhEcM9lRAccfyMw/yIC78WBsUWB48AQgRX459cPML/Q10J8LWcXh9wtcy0eNFS8uCZb2x559IXwsEf2bzBL2aZdIMz8C7lW8oUkCkgU+CMUmBGBUhdLK7efeTYhU9u3nGXi7Tr/TpTmloFJ1MkLFxGs/JzaUllOQRIDmXDCoFNQSF2H4EZO0GGVrufjvV0U0fYK1JrI1xfrtSiLgO1GmDokUTcgmMjKvyVfyqZuUdcVFSQT/OKiskAvt5hc1PbQB+YOofLOSk3YUEIMRWjQp2BTMC6ysrOgiArpG5YOQ63C4F6CA0IMQ6Ws6DiuAdq24XZouQYCMsYyTGWeGniLNSRxMmL6niFx4NkMCOtP3edKGLc+PLLt1j0mpAzGvxyukrnPqNvWn6YTAGZAjIFppkCMyZA3ugdmPPczr2fRyHgRyJKQzG7lsIeL1nAuyszkBFVUUo1hRlkAf9F5YUAOmQ2zRm4HUinquuzUVu/jYLQ9P2oNlcy2CH+roUFokQGlvA8cVEfAA/h6yI1GLYG/+b7zCmporQ0M2IlNuro74VFEaIAp+eq9ZABuJ5BE3FfJcwMzrRCd0IyRv3U3dlBRelWqsrLIlWGlRwhD9J6/bBaAJfCmVewmljkRFiwsPuKYyDCi8U/pTHxwdZRBOm9Xm5ahSZVVrOJLli7jpz2fuXG7W/fpknThvrDvq/naIyyJTLNC1q+nUwBmQJnjgLTLkBQBKjY2dV6zaa6uvv6XN7VUcQp1DAKMsFUK/JzaC7gRirzrajNAP8FN0b9nQAMsWHO7W4PNdt8yKzyi5hHlBk8MqiiItsJggbuqSjHJMC0OTIhnF1wP8XRWdBs0FOu1UJpqP8IRNXU1NxDLggAP6ydOJh/nLO4hAjibCp2dXEWFYfD+f5KCnFGFsbU5h6AteOjmrx8KrNY8BwLhVAswmCNEQzYi6p2pz9EgyhUjMFVJe4z7IiJ7C58OGMLqcBKXOtlwYmK9auvuppCkbBm05btt+r1xn5HLPw9qxL+NvmQKSBTQKbA+5AC0ypAGkMx7abjx+/cN9B9ry+mLPDDWjCAo2YD6mNleakIkKch7g2WD6uBGa0CKbmASA94qQEoufUDLrKFYKmoEMDW6UmHRlCBgIe0iE+II5laxZdCihi5yA9B72K4nYpzs4ULq629m1oghIL4uxqV6BEhLFhMnMzo47BiOJ7BgimOcXIWVRRCwg9rRhfyUUHYR1m6NLLAVRXTiORffNQCtsSoM8K95Sc3GkyJHC4IuaF8X7ZAWDbxB7+zm82PQkiGQTFmptOVV19LDt/fzS+8/PrHcq05B3DKY+/DdSMPWaaATAGZAiO46mkQ5KA3qNtc3/IvR7oGvhFSKLLZzWMC15wFV9K5cypRCW6mdE6LZYaNjxvaey+sjFaHG1bHAAHnKpGOi5A4TogA+dYMrq0GzIgy7iEdhIGJq8uBWaVB5bceGn65NYuyUAFuABJvq9NHh9q74HbCtSIdV3rOCbEhfSf1+mCkXenn8Mpyjr1YcJERqb8LUMsxJ9dKJgUsIRYKw2iDCA4NIEjT0NdNITWsGgBjqWBhSQWGUmYWC0k1PsB7FD/1sIB0GKcRWWE93X308BOPkb2/r/6uT3/ia2uqa547DdLLl8oUkCkgU+A9ocC0WSB72rpubegZ/BdEIrK52i8Dd67My6S1NeVUYkCQOuF0QoYtMp1i1NjfT/U9NtR1RCmoRvic4xNo2sFJTuz94WC4GnGTAr0O2VmZlJ6eDktEK4ikQWCb4x0m/O7Cp23QQUeaWiGUNJIQEnFuKbwthEYiTsG/87f8HwsphigR5yROBPwI4hecz4WoDAYh3FFCGEgftjOExYJrIcOkokUIBxaWLIjE3zkrK5GhJa7g8hZcxZArigAAGlEkWZSVS7df/xF65Im/Vj/25D9+vL3uaOSc2fPkavX3ZAvID5UpIFNgqhRI+Iamerl03VPNPeuP9wx8yxOjYk6M0kEbr8rNpPMXVFMhtG7kTOE/xAIQQ2gDXC0sFdrd0kkDqCAPwl0VgOYf5iA5KsklNs1F3jHKRgbTIkCYLMnJomrAhJQBwZA/JWDsBQmmbkfh3qH2NnKBaTN8CUOPiEzbFA4+LZFMBaHAdR5SID8GlxTDqHDNCNsRKoxLFUE8Bl+qEF8RMRgeKrvWVOwKw78h/KKYPAfT2T0mOhyyQBLSkIsdueEVhA1SeuP+uMDzuvWamyBrVQueffGVn+xrazo3hSHLp8gUkCkgU+CsocBpC5BNNkfR7ubW79oDkbkcVE7Xq2h2jpXOqSqnfHUcvTnYAQT4EbDi2gE7bW9uo2ak07rR5c8Lhu/D30PQ4GNgriLEITKbYANgZKUQHGVZOtLC4uDgN7xF4sNsnbsMDrrDVN/RQwP+KCwRDbR8jlWwW0pK053oEGm6DI8C5h/jmAiYfxTPjSDm0et1QsAFyYvvoyxZOFjOsRKkfoVxzoDfg+wuL9KOcT0XEfK92KxJHMkiQ3FPnCMJJ6kfOze18sLVtmBOBV1x1TXU22df/LfH//GzettAzURjlv8uU0CmgEyBs4UCpy1AjnW13WYPB88PIlaghcPfCiirRSXZgE1H4yaR4wS0XATDm+1uOtrvoF64rwLQ8EOs4Yuns8OIKzzYTQTtXriNAJOO9KwsBKwlpxUDKHLfcgiHxIeZsQ+puzbUWrD7i2HYuT0tM3dxD8ZpT37GofaJanLpJCTeUggmjAvl5B0OOzk5zRf345a4LAR8eHCHzUV2j1uMX4iPhODge7EgZGtGOiRoFE4d5k8E4wvhfg5AzA+EAtSIfiVllZV08aWXU1d3/+onn3r2oeO9PfPOlsUhj0OmgEwBmQLjUeC0YiCbuxqqXmvs+hSylxBGRlYUGGlVXjpVZ1sgPBALALMNgfl3Ai0XwXVq9YZRXc61F6yNc7wDaa6ifoIryfmQxAWbIhEw2BBqKJTAsRKsOGEEJCfDrNmBbKkgrB6OVxD38RAygzGthGdp6EjGMvgLkXXLVsxJbi6WZIkiQC5KBJP3AZW3Hc2oQkjZLdFlUHE6eo9geB5/jPpRGc9IwApYRlzgyPYOWyE8SA3fGLfif7PVJIL1CcStiEgVBlow5tfS1UqDDgctLaum5WvOQU2Kkv7x2GPr1RrVf7W4HJ8rT7O2yUtXpoBMAZkCZzMFTkuAHOwJfc7t1y7QwMdvQPprCXpuLC6roDSR1hqCJq+lZlR0H+21U7eH6zEQS8B/Qlxw/Qa7jRLUAY4itHMIFFgykAHCndTqdxASf6kQ57DrKplVBfHC3TrI5QxDgOB8I1Jv4dMKo6Mgms+CcXPF+diHVATIqbZ8UxY+yVGwpcOuKLYWjBQIAQIFcZpwxEOEOpMivZYCiONgJgnrieMhErqvEHCJYD0H0oXHC0OI85x4KHBbxQ0m8iAb6ygKHBv6nXDTAXa+pZ/WmjNoGYSIG7R6+eWXLsnMLfh2t9/37QKDceBsXjzy2GQKyBT4cFNgygLk7S5HyZutXTfGlAZSwApIw53Kc7IpE6CIfFPUbpMbQqQZcY9eN6fo4lvGv+L4BAcCEkCEDFYoHWDcKkgBtgAkE4U63U5UpPeTJisDfcwB1c69N6QcKtwvTmakBps8BmEtwAjCt7jXsFqRoVfLQiJ5DDM9BMPncUDgKRNYVuwqY4tCBNPxYQvHDuh4K+pRstIyIVikIkb+m0LArkj3HhJBbIAI1xkLD5ZSOJer3mF52ZGCXN/bQe2eAPnhdvP5gnD7xWlHbT2tnltBK9edR/12J7362htfUIeD8W6X89sFaelcYykfMgVkCsgUOOsoMGUB0m23Mwx7pRIumRgqwU0Inhch3Za7/TEzjYDV93od1No3gIAxNHVDmmjwxNr5EIjtCHJw5pVgxlDfI1DpB90+qo33kA8/M9NNKBxEjQbiCJlmMxivhoB9SGabDvEIVCUirzaKupMY9wJJsbxFshrgaBKVf0khc6Lig0MZUQZQjETIHQiKVFw2LRjWXbJgEucm0HnFnxkNWEClSMIpBkuL5aUDwqIDwrQTBZMRJBCoMF4tiMW9TXoCAdp+5DitnlNFl1x+BdB8/bTxzXc+Y9QZWge8nl9mm8zcrVc+ZArIFJApcFZRYEoCpM4byXz10LGPeUJRKO5ghOCWBYARyTKx+4gzkhQUAD8+1tZNg4gZuFlnBwSIFoFx4TYaj8GDoTNbhk1BCpxvR7aSu99FugEHnFNRSgcuVhbiEYsrSwEDr0EFehY50E3KAbBCFSwciaWnloU12ptgAReD5BD9PzAXUU3CwXMweU7DlZCCJWea5KpCXCPxk+/HQfxI4h7ssosg+m7zAJ7F4ySb0wW3HtxWDBMP1xePl9ugeECvMO6/r6mN1syfTVdefz39w+HQPP/KK1/JKcw/gts+d1atGnkwMgVkCsgUYIV5KlTosdurel2eZTFm2FxEB3sjxwpodCW7mFA5DoZrR/C52+kHGCKYKLR4Tl1lXCrGkxp+iJ4cUtxZcv0I1xHXbgN5V6EHs9ULd48bKLwOhY56kEZb7/LQ9pZ2YlujOMtKFbkZpMGzYQol7iFlYiU/I+d4wos13LV1wv3F6cjJg7Os+F9c3e72eiXRkRAaIusqAX7FQod/ZcysmB6paHojhFocLjg71Xb3Uxeg6L0QeFH0ORFZWThZXC9wuNQUUBuoDX3Z97W0ktqaTjffcitl5xTk/f7Pj/zircNHr5zKe5KvkSkgU0CmwExSYEoCpLWn77JALJ4rWsIiEK5HDMECVFy2EJImjQsCxBlEyi5iCxHOkAKjDILBh+AOYnwowWyT2a4jZsgCRST3svBBIB4JwhRUQpDgdyfg4PvAmOsdLqprb4V7KUqF2WaAFfJNwOpPlk+j0m64YBH1GaOMg4sC+T/+u6gNwb0dXreIgQg3Flsi7I5LzCN5Hqfp2v0+ahkcgPDopQ4ARNrQRdGDuXDFfTBBj2RqcnKuQQhIr1pLTTYbHWlvImtOPl113Y2kNhhm/eXRJx7YcujYhTO5EOR7yxSQKSBTYLIUmLQAqesdNNQ1NV/IeFSioRPU+ez0DMo2pcH64GReDSBF4Nf3BFEkCIgSzrbigLMo7kOtBnf8CwUpgqyt4YV30sAT6bSJoLcUxuYsJi4b5A9nSDFsCCq7Efao7xiklh47WYC3VVNcQkYULirVEnLVWMJJclElPsK6wAdWkSgGFPEZSQIxY2cARG5zq0JWFnpMIaDOwXaGdYd1xBYH2144J8IpZCiZ9CsM1IIKwQYIt3obkgcQNPdzb3YIVzjkEgkAOHWoPuVk8jOtXDEdHepx0/7ebiqaV0E33PgR8nu9NY/94x8/39vSvmiyL1g+X6aATAGZAjNFgUkLkE67Pd8bCpRLDJqRbiEy4LbRCggRCfWWGyq5AdkRAt4HoDoE5HkyZTaOgDNfG0A3QhYkQfwUbBwMmz/MXJMpsZxSyx/OrOKBMqouf1jQRHGeP66j5j4HdfY5ERexCjh3Bfp6iPMT/c1PhkFMMO+TqMmFflLBX/JcAUcCASG6EIqIP+d/qQkF7xSExcPCkOs/wphbGO4nP/7uCEeQbeZH8aGLetB61wMByanG7L7jFrjcxorpw2nMEpAjixTuYsipw5LA4vmHYWW5YXEdRgfGAy19VLNoDn3qc58n2+Dgksef/scv21y+vJlaDPJ9ZQrIFJApMBkKTFqANLU0LwpHo8VJDT+RqZoIjp8Ij4cgGPgYXuktBdAl1xXHClhwSBZJCD8lHCkp4iAJp+S5o00oBisgpDGREzGR4x195EKguiwXnQ11AFoEk+dCwjE8ZKPSh4WFNOBEWi5DmLCbCjdByaAQBH4ICf7wOYyPxYLFj8r6HtRvNA30U6utDynFSGDmtGAIFj6S9JnMS2FxaUcNypGOXjrW5aBZ86vo+puuo66Opg1/+etf/4RmW6WTuZ98rkwBmQIyBWaCApPKwgKCrvaPzzx/mS+uQVWDVEynA2NVcb8N/nBwGKOMsF+HmScj2w7DhxL8eVjcnmtABNggiwsGGoR7SsO1IlDMJWh0fARG1Qg5xz0+uCARQigUgcssiHqT1j6qnFVE1SVldKChC5YNzAUuaBTouifHOUYTLMLqYNcXJsCFkRxoZ+Eh+oTgdyO+Y6gUHwQdWx3usB8xERc54dvy4ztA2IuU3+R8eE7qIaTGyb+6GALu7liQDnW0C7fcfBQaOtx2ev6pFy5HmvOv6/ttX6jOyeqa/J3lK2QKyBSQKTA9FJiUABl0e3Ka29uXBzNyyMAprYxEywFv4fKRSukkuHMpvVUIEGj2CsQQGGJECBBRYJdMs5XcN3xwhIOFRQyB9hjOV0OwqCCm2I6QYNOlu4sMKmHJsOsJvTrwt0hMSzYUK2q7bVRclEeFmWHq6O0VlgCnyQ4P2CeflyRfEngRsiuRsstCT+oXwpIswh0RIcB8XEkeiJDRh37t6F3SZh8Q/dsj7MYS1fUYB1tWol/6icyyk15Tstpw3HeXrC1RIOCuRIOtEO2qr0MPlNl0zsVXkscbozdfeeWqdKvl3p6g91v5OpN3epaCfJcPGwU6JM0M0KEULVRgM8mHTIFJUmBSAqS7tye3u7c3X4lsIoZTF4yfkWYZTZc5sDhOcMmkW0iqp5AEwHiZwyKjieMAcGtxw0IFfnLPDjWsEm7YxOnBklIvIi2kifNZyNJCBlMMMCY9Ng8K9HRUnJdNfhTu2WAhcB/zsXxZoo7jhCQRI5csEQliJQAhCSQTKWssGERWmR+NrABBjyJGp8BbkeIxkvdLEoaiSh1jHCmoJvVehIUVEbGZEASYDYLrMNx0qjI9XX7dDRTweemtzW9/zppmbOz0OX5bZLRyRrN8yBRIiQJHoAi2ul1XvVDbdBOyI7M1sYjr8frWo1l641tl+dlvVWkUzpRuJJ/0oafApATIwKDdijauFhM6CUJiCB+PYJ7C58RBYe45zo2aJO9RBFo7w5cwUx4uQNjSSB4jlXL+t2DCzNyFYOI+GhyO5kwuZDIh+0sJ15VCZHdJ2n4YypMaYFkhPtcxSBqzjnKKM8nZ4gXz52AIZ29JVk8MFwyh5TLCL/+H73j03Dud4dk9KEqMww3HKblswbCYUcFNpeYYCDc8QUoxu9DCmGg0FIUI04qMLQldWDpEWi+Thq/nuQhL6MRslSPqYU5aiRwLSlhdMMZIqbNQhxetcRs76Yr5lXTJFVdTwB/RP/PsG9+wmjNbce3TH/qVLBMgJQrscMfWbW5t/G67z3mRxxNTSyjXMEMofqlRq/tovSv09gF/6GuLDdr2lG4on/ShpsCkBIjb5U0PBEJaPfz+MajmSmagYIQBMNcgigS5doOZv4brQow6CAB8J9xV4ILC9ZQwBoZiGuyGGo3+HE+RzheyJsGEYZIApRfFigigs1USEWlbnBUldfxjQREAxz/e0UhzKtHMCm1p69s6E5XtEvPmPLGku40tiwS7Fwyev2eLKiIsG5aRHNNJxGiEiw5uJQzIBNcau7gY5l0IT+byfO9TXFQM487DT/Re5/knzhkrzVgajyTYhMUmeolwxpmSepDZtu3QETpv/ny64pobqL+rt+Cpp1749+1HDjedM3/BgQ/1SpYnPyEF9nrj8984WHt/Z8R3ngN7yaDUIU4H0YGlxikv3pgyr7/f8RGPu6/3eCx0T41SK7u1JqTqh/uESWVhuVwua9Af0PhQKBdFmmrSZeMA7LoL2jmj1LIAQSIUZZi4Mp078yEjaqhyWyo8HH6k2j0wGcdgJh9GgDwYRJowhBZ/OBVYFChye1z8tPvC1NLeiwJHHVm1BggdVMHjHM70ivA4kTnFH65Fka6HZYHr/MD04mJHjmecqEVPpA1D1vBz+aMDnAo3uYqjYp1jKMkiwvGEwlA8fcgNl+LCG5ZAwIKk3RWkA82tZICVddPN12C84UXPbdry0xa7PTPFO8qnfQgp8G5n/6IdB4/+CAgS53HMTsluX7aSsbyTe0sksuM7nHPh0eb25R9CMslTniQFJiVAOCIehdrvGnQRhEmiAC+KznzISEKMIMD4UGC+bNakG3RkgKtJza4uITTYCpEaQw0FmROyRPRBH6G9j/ZdsgCPT+WMLVHEx9Dr3CkQ9w2L2gy2DNTUw/UYgJHPyckDziLnjKEXCRh+IAK3FH6GEzAikrDA9dwDna0lCASpUv2E9ZGkqRr3YZiTOFxz7KYT0Cu4hq2UKGIinFWWnNsk38MYp0vCKxk3EpAqBjOq3N1U29lJZXNq6NLrrqYjzQ2Xv/L2ps9OzzPlu3zQKPD6gUOLf/e3R//rQHPT9RHA7HDzteTalTINEx+OpvPa15tnN3fbz/+g0UGez/RTYFICRKXVeqFxRzwI4g4CVTbGPcAhLbgbYQ+AAn1gznygfBBuHiWq080CnZeruZXCzQNGnigklLSe4Qwyld9PaEt8H/ERDJ+tAEkQCAgUmOVh1Gl02x3kArJtYX4BauKlroI8Bj6XCwFZaCS7BSbHwz8j3D1wCJ1XInoyVZl/ZyHBAJLCf8zV9yx4EpJDEpDSZ+SRFIqpWl0jr+ex+nBfN57ZPOCkNgjJlevPo4qacnr1rdc/v7XxyNzpXyLyHd/PFKjv7zc++Pvf/WhvXd0FYSh1XPQqMhMRE+Q9EIPiw1bI8E8AqSjeqGrOcXtwVAfz+5ke8tinlwKTEiBYdgFo2ZEgspHswHqKQhPngDZrLX0ON3nhBpLyrCLo3qeiQvTx0CFWcVoZSaPOd6xhS0KIK77ZeevFaNpR4KfTIahuZqiVU/eDEBzDnjG8juMUAZAohGT3lQHBfDU0OVGxzvfgrKzRepFM7/sSG50tPTtXq3f2AvokQhdftJYUOlU1KtXv7wh6jNP8SPl272MKvPzqy1cfrj2+Low1wxl9/BFxPWh+woUlFLnEB/Pk34Nc86RQ6yT8B/mQKTA2BSa1QsCI3ciCCqkQUwjaYIEAKFDJMQMIkQHEOmzomcH5pBosPBOYaUmWkUxGtg4Qn2AXD/42etA81Vd0wp0zhLaL+3KNCae8JuLt4mbCGmGkW9RR2KCt52QXkcXM0CroLihqSHizMNNH+HBYCrxkSMANB4uJq9nZBZfMpIrChFEggcAM68qCP6ogQDk7izOwzsTB4+Bn8by8GCjiHgCU7KTiwio6Z9UGaqhvu3jrjp1Xn4mxyM94f1Bgx46dl2O1ZwT8XlJ4/aJ+S8QkE7qU1P6Z8d6wb/kDK90QjgYNRAfmZqLbmXzIFBiHApMSIBnWjEGDwehVQFD40ZbV19NPKgSjYfGSHRlXzf395EOQmdNrTWDS+egPUoj+6GqsygiyPpjRM3DhWFDro7l4hp87HkS7mKMQCCdndnEPD9ugk7xABy4tySIDEkuGwBm5fa4Aa5RiF7yJkjGM5Fikf+PvIgs4Rhakh2WhDqQiKxPwidx+l3U7EX48yZKZqVXHwo2fFlQjngNB1tY/CNwxBa1duQF4YPmmHbv2faLLNmieqefL933/UKChp0tvtzuKOf09iJilt7ub9Egc0XJaecLrqob7V6x9dsviex1MEGMoeLDEYnzx/TNTeaTvFQUmJUAyrVa7Ua91cRqtA5XYXe0dFA2EEA8AG0aKaVtXH/W7vUiplVJ30wHHUQk3Vg56ietFaiwXx838VJMxBiFwwGTdsEI6e3tQQ6Kn/NxcuJ/YuoBQ4DTgBDIuXzOE65X4PcJ9OgAfH+RqdPyXY9HRhrmzaZ7VQHNz82h2MWIrUNsiaMUrmfuTIucUCSGZO8JKQktDh8dPXYj15JXm0Lrz1tOxY8fOOXj0mJxBM0XqfpAu02g0QYNBb+dswaDHQ7WHD9FgTxfqmUKkh2XNbZYDnCYuEkEk9xUUMG9Ouv4vH1taxY3M5EOmwLgUmBTHy8nKdmaY0zr0SGNljaWvq5NcdhvFUPXNrVwdPh/VAUXWxTEIcG8ddPMCg55mZ6aTBa4uNpGljKwTx4RWxWm8QO7XwYHyMOQZo+PWNzRRXkYuuiemk47Ti7n4DwWJw4/hWVScFhyJo4gR0kWL87PQSjcnHcIQF1hxWWUOLBoQQuSecSHl+MUdpzGTE5eeeASEGuM6agzU7vDQIABNFixehNa/mZmbt23//LQ8TL7J+5oCZVk58dLSireA4+DRYB/0d3TQoV3baaC1gaJoNx2HW0sL4aIElpwO6ey6kM+Zb9T+ZnlN+Z/f1xOXB3/GKDApAbJ2TrWnrKh4kwK+fx20c5fDTt3tbRSCb5WFQwhMtLHPRi2AFImIyvQ4ZcECqIa7p0xvICObyeNo6cMbPSUpMJnMpeGpv8msKgY5jEHTCmsUotbDgbhBcXYmZUKwoYRKquPAg0cL9CshYbRwielYgOBci14HYSLZGZzVZYVbLkNA2QMEUoToGdKeYyZS3GTk53Te6smuPCQKIEbDHUaiEGf9wMdq7euj7Pw8qp49mw7U1q451tVXeDrPk6/9YFBg/YYNr5i0+j0idhbwUk9zI+16eyM1HtxHg62tFO7vo3BvF/naGm2ZYf8PNsyp/PGGDLPzgzF7eRYzTYFJCRAezNzK6q1alaabayFYcDQ3NJLH7Rbgh6zt98GFdby1kwa5yI/ZG7hoKRo+LcjLoyxkfrCP9UwdUqAcjjPAnHCvcm4ja++3A0NLQRXFRQToBjBh7ZjD0SNGYoz7yYx+7tloUWswGqjBF6I2aG7OsI+ydFqqhEssDcI0Ci1OADCesYPpzQjBavJBCPYAwgXyhJYuWsxzrnz9rTdvO2NDkR901lLgxvXrWq6+8oqfWAya/Xput4y129vSTHvffpO2Pv80vfG3v9Ibf324v3X75ifWlub9aZ1F5ThrJyMP7KyjwKQFyJyqytZMa1o7o+aqwbA86LzX0dhIPrivuLAvCkZbP4B2s139ECBshSihrcepqiCHavKzEYRGFkiij3o0FhKZUCdXfk+NRlITqGRHQSmonfxIjak4/RWNn9Cv43hrC1lRkDcrO4vS4z5hiSTz4BXc112JTCu4rioAx7Isz0orygupoiCLegYG6K2Dh2hzYzMdtXtEu96KvHwqT08jI8O2RILAz+IkgWRalpQyOZplNdEsT8wnOa9Tf3K6AvcqCUFI96OZVT/8WHmFBZSWlkaHDh28sHPAPimomonGJP/9/UmBH99152u3XnvNV0rzc15AgW8nlCGfIRD2I1jeZwkHdmyYO+f+r3z0tn+7aP5s+/tzhvKo3ysKTJrBXLpyYfcX//0/X2t+863linhcpUIWbPvxOkqH+6R4ViWhUIQ68TnU0k2FFjMZM1B/AcU8DT6f+eVAyWWEWXQR9IPBR8FsRd2F6GTIRwKufQxqTKYAj5k240mJREQunOKcdxQRBhC76EOr2Z6uLpoDK0QXdtNBOwojRWU60hkR69DCuio2WWhtWR4VIWAeBGZQg9NDR6C5uZDmaHNFqNvbTzWDQaosKKSFRQXoCYIYi9MOlF4E6CNqPJcRdZPFilKmC2N2pXoMb8TF14w1d5GKDLqhky4NAOakBvGdMrT3PXRgX1VHVye7sdpSfaZ83geXAt/7p89tfnr7uwd3Hji0qr9/sEIZUamNFr19bnnF7jtvvrL+Lz/7/gd38vLMZowCkxYgPJLVK1c88e7Bgx/pdDhmC80ecY/u48cpMyOT9JlZKFZSULPNRQebushQraeCNK2IGRTqlLS8KAdlF1GqtdmgmatR7MdwIOB+zGAToIQzMVsRHOfsMPDbIBcYIn5jhYArKywlZ6ydwgM2AjipsBbYEZWdYaKMdBPwvGBm4ZtwGJo+ovExlR5QKEoaQCpzyNtDLmR4zZ9XScsXVJBrL9B/vUG4lrhPSaJtLefYQ0DOdEI943jZ0RnRWFBCsxEHefutTWXHGurnywJkJlbT+/OeN5yzxoGRv/b+HL086rORApN2YfEkFi+ae3heddVrJlgPOrijDGDIdgTkOuuOA3EQddKwLAJI9T3aY6P9bd3U50OqK67TwwYoNalpRWk+VVmtZIYg0aFuBP0IkMWFIj1kaEkdCGeG3aq4OBAOqwgElwPFkK0IIHLm1OzCHJqVYSAT3FZGMHyOjCDzGLBYWgg4BfUgA7l70AP8LMYRQlovMs6isEo8+L0BgmdfbT2wwfw0r2KWiItwijDQtkQBZdKNJtWKzNyhBkwFetULCP38/HyGwNe39XYtnbknyneWKSBT4MNOgSkJkKUlBbH1a1b+IT89rZbjGaKSFam8bcdqqb32OCkArBhG4LoPguFIdx+aIXWSHV384LwC+w5RCSrCV1YUUw1qRKzA09Jzau94/TGm8JaGCgFFFEb6CAuH3WUKDQrxNNSPPuo9EAAFFiOEWiFVp1nIClshO82EbogKqgUMym4IwXfrW6gRRZOcZcb4QVyFxTEThnzwQYi0IeZzpKGe/AhQzikrJasOOVmYu4JrXxIupmRcZLTCyClM75RLGJLCEw4KZOIs9IbnuvzOgb5FbfY+zjqWD5kCMgVkCkw7BabkwuJRrFi8+OCOd3c9N+DcWx6OxPUKQKJ7unshRI6R1qSjjLIS8iGFF9hM8MLDDa8K04KKHMoA82WwxRIzipdgibDFcdTuRHtcdBac9umdfEMGI+SDUxoRvYErK0odgGQpzzNSRXoG6atQUQ9BF4UAONJ0nHqQHhtSmyiKMSZrDgX0iWgVxYF59E6HSAxDIPWia6C3p4dml5XT7PJyamxpJTsYehjuvDhmzNbPTB7cp4SRiCMoDjEYDJSVk0N2pz3P4/MxNtZZ17Fwjz+a7Y+EC/oGBysAqZ+NmpsMSGYgqCE3GgTWafRurVZrA5Ky3WxWNKwzmd5XDY5aonGtMxQuQSvkHGDEZbvd3jy0D0hHyrge2YBqWNm8IIDZGfcYtJr27Axrk1WraZqv05yRFNrdg76Clt6+JfDKZjKWhFmv7s7QaurW5+W1zuQ6He/eB33+NGdYUeYPBTNC/oDB4/WauIoeLa2ZNYTRJtuPf3vTrdYBtVbjPD9N/74M+u92OHO8sVieOxzI8gZD1pA/jA4YKiSxQsVVKkOoKQtg2p4sq74V76V/pSE92bjovXo1Yz53ygJk+azi2JOvbvptbUvzmvbegfUxMDD29PdCWMRQXFeuDFN2eSn5kCbbCYsk1NQp4EyWVJSRBVo5q8Xl6cjPKi8iL7hzg9Mt0m05I0u4sKDd8zFR4Hx4ZftE50oBZ76p9GGh1Rfwkw1B9ArEQ2Yh3bgg3UxHAQ9icwKuRWNGXESCnwd+YuJIZHdxYJ5vA4HIjaWAcy/a6CpQnV9dVkGFuXAjdXYg6B6G24v7onAUiK9IpgvgZwL+XcRdTtNrFxcWnBRr0cCNloEMM5/PoQ8Gg/zgs+LY3T9gtnl81XV273WvHjh2jicUqIadlofGXkbu1cLj5xbG3DOGQSrBLBDqVblB4c77d+3ZU5Sd/VKewbz7svysprNiQqMMYpc7tKTD6T7v1SNNq+0B30KgIOR6g4F01BsZwBwSjcuwzjljkFsX48WjAVtY197RY1SrG39/rGELQEhfy9Vq96+wWtzTPc9j/rhmf2vHJ18+WHsngDgXRjhJEgdw3TxWne7g3xu6Hry1qvDR6X7uWPc7Go6kdw3aF3QMDFzw8v7D61whqgIPsCK9xsy1yCgG5t3Ky5oXSAR70Rttah8ELt/AD989dDjXrH61wGrecW1xyVmrYNS63Uq711/S6Qqe2+fyrHhx37FlgXgkP6xUZsGTYQH4K5w4XAMgqtGYSbDA9OvV0XaDRnHgv/ceeis3LW1PUXp6w3k5Vt+ZejepPOe0Cxfu+/mDFz2z6Z3fuHye6ggQav1gZAqNirIrS6hy6SIy5pUCLwpxAbTBrU5Lp9VzS2ku2s1mCx6OroIMTe6O0rutHXTM5QGsArew5Y3FwWsm5/ic9VQBwteOPS12PSWv4a6HDB53cX4RXVSRRli11Ivv9nUgXbe+gzw8H600Dk4FHjpOGhMLBDiMGOMLa1wDiyMXRZP5GRkUhzuptbdVpPsGESmKY05JK2gI6TQhREYKkMnFgQBiHwtSAao5r5lTDngVPf3wB/8Owdi388ff+MbNq2oWvKeb67XW5rL6Qc9H+gPhG1xR5ZxoKJ4hUr5Z8MISTCLCin6RQ+/uhMWWdJPCLegDgkBrrsW0szgr85mSDN1r52acHRvq7X7Pmjqn4/aOQdfVzmC4IojWBhG4NznexnPi4lJGMeP2ybymky5NqSxKWltsGTMelUGjteVqNdsLNaqnSwqzN56XkzYtVsHReFz9em3TL5ttni86Q2w8MyAWdiGbIIyHxVVRCtXA4mLdnZ+uKH8qFQYy1XNetvcv77QPXtbrcF/iDEQXggVkxYAKwQjXYm8wH8DwTqwN6UlJ0EeBWwfFMxaPBIxqZVuWRvVGmUn/eHmGZefakjz/VMc1ndfttjsyGp3OSzqcvivsvtA66Kr5MDkt0rqXAC0hwCU4JeYxYzyc17+Wor1Grao+I938SqVF+/SNxYVHp3OsU73XaQsQfvCnv/XvX9l+4OB3Yapn+eH756I9BaLQeeUVVLxgIWXllWBxqsiISvDidCMBKoGWFhWhAE8yBtgpVDcYoG0NLdTlc1MQ8Ou+BJ4WryBe3MMrxYfXIp6OABG9oPFy5pktdG5FKZXD2dMditHbdXXU4EAPci16i4xCWdHj/SS5xgJEUh54ERjxRyxqyocVoADuVltXN6DuGXNIgzM404uRgocvnFPTlycrQPQQUaVaBV29YBa6RSroBz/8AdntvTt/8o1v3bR67vyOqS6Q07nuzb7ewrrOnhu6nN5PBDS65W4Ej/x4YaoQLA2GwgeT4PeX7CXPQJsMCSMd3KBLomjy3XOsTc3ox/joKdafbza8Vp5l/v0tVaVvnc44T+fa/Y5Q+c7mpi90+wLXOSKReQytybU5wpIWPWrg5mShmEhVZ9Qptj74YCEidQSUBIga9GCnaAzuYEU0xB09I9lGw65ik/nhuYV5T66yGm1THevhgUHdzo6OTzf7w7/oD8T1/gjUe0ASMRJDcg8lhVlO3PHKeWUFt19ZNgvVqdN7bLHZaur7B25ss3tvc3r9c4IU10bV8ETAG8CuXh4Ps1IeizA7BH1OjCEJeiq2DwRxjBvWIdaoZnSMeHgg26Tdmpdh+cuCoryXzk1Le08EybFg2Fjb3nVFc6/thoFg+AIPqQpD8Kgo4PIWMVDWXPHhty7RPiE6TukhlHC587rn8yMB7O0Qpamih0syzI9U5GT+/dqi/ObpfUOTu9uUXVjDH3PDVVf8adDlnH20sfGzsDh1Wm4aBdHaXdsssKbMagNZMnKwQzTU4/LRnuMtYLIGmgdLJB03MmClVGeAJRQX0rttTXB5+SkAxNuYAta12HzDiDy5+aV0dlNfL6XrsHkLctFnI0Jd3BxLZRY1KujBOHSPsS0bhOjFQmCOFxc94kMoWIwjVbkIc8ovyIcQ6RFdFBn9FyWYzBYFk5yugzPHjKC7CXRzcxwHvePRNAjyDylxZ/g45A8pjnR2Xr7xYP03olr9mqDCoPeCE0SB2qwArAxvnZjgCtL8OcFB1ADxz6SlJ2pyeIdxYWaicRfjmolNp0JsSpXT5QneMejtP+fBXUf/Nq8o56ELC3POqKX1eqvrko21Df/a4nZdGYI2H+W5YV4C/j9hWQjkZzEP1paYOSa44YiaICZHCHNlhYWBO5VQQODiUHtd3nOcLt98m8t78QvN9l9fXZH55mRf5+7G9rQ//+OZ++K5uV8MZWTr42q0ZNagHzrIz8MQz0xY5qIfSESxAijPK/D165N91ljnN8biygMdPbe+1dh+j80bXIEGNhTRWiQs00QzOCE4GClYfCRFgmnJCSEnKY1MX/FHKCDMjHlFabWgVzS7iyLX9Tg9l/b6PU8/2tL8Xx8tr9g1XXNI5T5bPYPVrx6qv6fP5b0ySFQahRs8gnFKDlpJ6AnEcKEgS/NLup/xy9AjpPUj/Zu5RpCDsLBoCfP0KqILGpyhn/Q42q/70/GGny4qK3hpmd7EW+OMH9MiQK49b7XzkZdf+fGjTz5fUtvceg23jVUAut2IheFsaadGpPTOXriYFGnZFASDaAW8uvpYHdhoDc3LRyYWRsGCpAbQ71FFESlR5NcMyBAvVji7AgyJeMhMUSeENp8tLieV5GSQByqOD++KNWUlXGmMfTXyYEEymunGcVEh79gtg4XtDKBfSPcAZQBMsqiggPr6BsRCgNmNkyRTfbgFdTrzY9cHY3yZocn1+xzU0txGmdnZfvCgM7qwttpcBRuP1n6p0+P9fFBhzotDkRCtgllkYhexK0dYcNhSLEjiSOVG5F+4/wTzSLiwlFxHw+4V/il6eDN12MWFe/HtwPEiSgO5FbFZTZ7Ad5zNnec+1dL27RvLS7edDh1TuXa/05dzsH3wzs0trR+3RUOzfbCYo4kgmRprR9pUCTy0hALCoiGc0JijvK6A8KyGQsX5gWKuCSYj4mq4FyPoMkabGmCZ3jiltfjDN/d0dKx7cF/9/55fWfwfC9MMKSdG/O6RJ+461NX1pfkbMi3c4C2JvisYGAepWe+R+LD4d1ihzx7wBNfim2kRIAe8vrS36xq+XD/o+1dHRJkbUllgLUjaOCe8c7o7M1YutI3BS6Hi+BdLFtE+GgoXgFB5AShBF0YQlvpJS+tCcjBjJUE5C3KrA/AK7DBDpy90+4C9ffFvDh//xfKywr+ssljY0TFjR1Msqjja33PVG4eOf6MvZDgvotaL+XFii9AfWDhgLfDQGfZJgd85gYiPQACvcpj1gbgfYq5JCx08QghJnpe0sgL8U6VRRGPBNUd6Bn834PU89OJA76+uys7rnrEJjnHjaREgfO87rri869eP/eMe+9+fNfbYXRf6QvA9sY8VAfT+5lbEQdRUWbOYzLlpFEEEvdU1SPEDh7AEFtHcIquoVldrwlSdD0sFpnWsrYfq0Do3wngpk1LUmdOczN7ZkTAELiI0GukYcouBKXkQo/FCaEVNHN5ntwlzqZP8VBO/m0SvDiEUGCIbi3oQyQEcP8nMQdwnMwO9SRygCQfWAQEPN47kCjvh/UwKFP76lLjIMK1VbLBhhxGxmtxMKxiuinp7e8kHmP1io9muUWvOWNDt9f6e2Rvrj/2kPxy/yQ8tV4r3JK0zieocNEZgEEWYXgqg8NEDZcKNXhX8MwrmkaSFGcjHRnwys6ykT7eAJWix+XRgEKyysuCFx56FCWjNCANdQf8GZ2PnH/5S2/b9j88pfWzilzW1M7b5fJVvtzR/q9kZ+ERQpdIyVxIdWsCB2V0lHSw8uGUACkphTfs8DjE/v9dHAfSlQWID0sRVpAfsD8/NjDma0q0QKBJzZGbO0wTSA6aKWAqvWZ5nLFrQ4hi8W9kaUu92uH+KIDswmMc/Hntz07wf/PyPHzWWllriiI1JLlSJccPCGdoHYi/gIxiy6OiprTjsCCoWWHWT3AQnj2fboDP/7br6r3a4A593kCo9hneo5bWBPkJMMaYRfHZwzcBqRk0Y09KFImQv2jUPwoKPol4rzOsCTFQDAFS1UU9Z+bmUjhijzgCfMwsMIfwSaBbJ/R1FfFWhn9/odP8k3NyUvcXe+9/nZs5MbORgMGLd0dHz6aPtnV8eADhFAAXTUmdTzBEufcFPmPJQqjluE0cRssfloADabftRSuAGgoVYNWx1sxfBbBJwRBZAJGmxRlRQIqLs7mSPCP7OSgcvOfbueMKqnJA9+C1PuG/Os62td19XVnZGrfBpEyBMgC/ddlPDr/721Bcff+r5B1v67Jf68OKV3EQK0CEdx2tJG0MjJuN8aOiowwiiox5SX7fCElGoZ1FlfhaBXGILlmFTBfNj5OxspwEORkrNzMVP7k3Oy4wXzUjwwhPM9+QYBeu3ySOxT8Q/WSngv4kyFLwcNzRhATmPDaQBo4uwO+UkLi4JJoFTNVrIC7uQa02E/zZRL6KE1WlzIa4TDVJFaTlcTDpq6+wC5IuUbMFBVmGkJgQCLxS+npnH2GE1SfiJ86DJKDFGji2VoH4liMr4Y4CW4ZuDCR9bUll+RgTIC91dy95paPx/vVHlhQEs7Ch6bgtLTWxsCaGYYfG5g6Wvxw5U2BZqaWqgQVhoIa7q90vDFHERzF2NNcK/Z8OqKp5bhX4nxZSZWwArnoUICjqh6rOmKm08CCkwR28sMudQ7+B//PlgY+gTiyqnPQi83eUu3VrX8G/NPu/HPXixRjAwFazMKDTkpMoiEA8QX+BOlh57P7ISW6i5/ijZ4SaNoZslLymen3Dds9at11NGaRGVlKMItagQiMqF8FIkmby0agXDZ+UEPz2kSD/cP/hNhEiUu+y++1dmGrnF5pjHa29svNgdCpQq+IHoH8PxGQYVjfP6lvwnwgLhX6XOmrwfOC4Sz8U/GGkUnpipHUeCUcvrdc3faLB5/ymkUhv8eLaaLR6mF9OJBQhurYHrzo90/7DbgZ4lR6m7rYt60WlTj3eNjBq0zuZ9grO5Lw/GmpaVRWWzKykPkD3lVdXgJ9xamqNLkjUnwQbBBQ4F1hkL5gKZ+qvxUDiG9NkHV1jTpzUuctgfs77b0vz1Y/32fwnAXxXGu2OAUzEGQTZuGyHVynHzORca8TmBnN1S30AOYOs58W9OrBDJFSzUweN08IgYTEbKLymlUsBD5RQUk1JvEWuc5ynFCSXhLwqbVVpVjzd60+HOfufLrQ1fv6KsSpJIZ+CYVgHC4/3y7TfW//oPf7jnkVfefLCp37GB28BKPfSi1N1xiJSmOOXOXgBtAimyoPBxaBnhoyEwi3k0NzOTTKBLHrQwTa4J2UsZdAAZUV0ikgYnB/dch3UCqCksKFS2cybGNBFJ9FCHeQ+WIO7IoVDp3qM5q8Z+KHddFBYP90jHzwAvaCwqLyycjo4eKsDiry4tpfa+HvTw8MNQYWsH2qqkxEpJZ6yBSv6Ekx4ksLUwKD6XUY0ZRBFxVioASvCywjwAQ0YB626j3Xv3Q2tR20rLCndOE3nGvc0r3f7ViF39d09Uv8rPdT5wT2ghSDnTisnJwpBbAEAdp0E09hrYd8zp6Ozq1EaizhK10asyG8LxtHQYZBG1N+DNcHnc+ZFYvMAbDGvcfSE6bEOjMiRdVC9aSHnMMLBIWHvm0hoFu0uFRs0xFmwmgD/vt7kfePhIu/qT80sen6751wdChlcP1f5zlzfwkTDiY5xtF/byquH3BKEmtGCMAgkCIcTQWuvrqLP+iCdo7x0wKGLuEq0uGtUiy4FfXzSmcXvc6cFQODfsCyn9bTE6CFdvVmEhlcyeQ7NmzyVDVrp4v0zCkxJI4BoJxw2aY47IN21Hmot2BuL/vEqvGFOItHW2zYnGfBakdwGHDvHGhFWYzCocbtwLQFE8TwPCxmMqIwQd84cpCRBYHoUvHjj+jcZA/CtxLTISsQbE7IXMwlOYaYIZMqyRd3CQeloPUVvdYYfKE7blIfRTUJIbRkp3JBIMa1EXYnR7AlmBcCQ7xLEAWPHNO/dRf107eQHaWgX3uBoWHEw4vAK4tTARzuBijZ73VlyryWlw0DcCLf7iHYOxe1dnKKdFqap1BPTvNjd8/khf/1fcWpMJzXkwNzSs4FYLHPjGR8saJNZ9HDHRgc7j1NnQFLZ1dg9oQjFnTiwWRG+iCBQrhS/oM/uDASuInetHNmoESjfzxnbg782aO59mzVlIpmx4Z3A/tkH4EAF58EqhXoOPtAcjn3F3DFqe6en75vX5uc3TtfbHu8+0CxB+2Jc++9kjP/39n+568uXXH+obtJ3D34VAzLAvQO11jWCSeiqtrsG+0wLyhHt7D9K7sEQMc+ZRWSb8oyCMBcxgflYxtBMT7evspQGY/3FonSHOnQflNKdkLIw3zeFiRkLmHX6wpoxaBGhBYdLDYheac8Km50WePJLsPBWbXrSe5c3KrgfOdIFAcWD+sEeoHMH6WehmWA8t3IOsCgHLLrSrRHZW4oEjx8lMSqQv4u+c/hcDmnE6rqsEYGWm0STmcLi2gRqbm+AFVPWVl+TVzvQi2j0QKn67oelbrmBoFRdN8uiS1hm7JbmwUYVBq5BmPNjV4eytq3uhQEOvbrhg3Z6SooLB3OwcH6xKTD0ej8RDit6BfiPGn32stnFFfXPbx7z+4Cquo+gDgrIbbQNmweSvWAyGgcw5dn1I1JCem9xUPgWVHevr++5TLV0tN5afvhBFHr96a1PTF5o97i/4VXqdAhYQB/hjHM8R2jvgbxJ9YOIOB/UcPdoUdtp2rKgsfqX6vOUHirLSXUqdKpIIBCv8Pp8G8jPneO3xFY3tfZd1OT3rsJ4z7LC47ehX4wQ6wpJ1a0kLYEwpceNkNUlkTqEXrTMUuelgU/tenPDf47znk/Y4MzdpHJIVn7yzNA/pe8lgD6tYa57K8XpHa/nmo7Xf6A0pPx1XpUm3EIHxxN14DyMgpgoi7uV2h73tLQeyiN5acu5578wuqGgx6/RevV4fMBkMbrvDYXE4HIbaxqbSQ8dq17d0dF6HfbREiXfg7uui49xawemkBavXUFp2gYg/SugPyQPzBC8Jx2PZ7YODn9od87YfdAceWGRh9XPqRy2y2nYcr/tYvcv5r3Gj0cQRPWHJwdpgL4bIrGNMPLgrtXBVOdrbuqMD7ZvnZae/Uzyn5nBFfmEvZHqIC2e1GmWou687A11Tcw8eO7qyq79nPeZ9bjiutAbgAq/dt59sA4O07Jy1ZIUVHkdmp4IFk6DribXBfMQXDt10sLFtcNPA4DcvzM5wTH2GqV05IwKEH/2tz33q8A9+/dBdz73y6m9QRLOS106ItVK0YG07dhRki8EMrSKl2QgkW6LDbR3wDUboklWLqAwMUQnNMg8cSJeXCSDDMB3s8Amt3MlMA+fHBFYJF2RJZuvpHhywDEKACM+SOPiXqd438VKHNgx3aOR/hNGC1kud3Z1UU11Jy+ZW07GGZgS9/diuqM8X/n2Oi4xuVyW/FbYN/qHHmK1g2lWIrQBijAYG3LRt5y7yQXvJz886tmT+nLbTpct41++zBbLf3H/oxx1h//VhmNynHBAeOsAhxxjq3uM8bIoEHrjt4vOf/eIF541nYrM23YfP0V8/+vSzm7dsu3xf/fFveyLRhUFonkcxPwQQaN6yFRRHqji7ZEYe7FByxWnBvsbW72zqsd95YX7maQUXtzW23HHIPnivR6NPJ045FS9AsnxEwi40ah3WsxZ4/t1tda/Oz0v77UW3XPrmFTWV4wW6G3GXdx95fePDT7y48fLDDfX3Ig631O9xU3v9MeFaXbRmLRIwoL3jRFEvkDjYehD5fAqFua3XftffGzqO3FpVvHG0dwV31SmLSVJuxuefwsXEuQ6TPDa1tRa/tu/I/V5D2m2cZXXSMVTIyxwWwsPn7jQGvH9Yf+7aP926Yv5YGrMrcY8G/Nz0i78/9X8vb3rr9qa29jvBL8oifg+U0nrSaQ20/NwM0sA65SZyYrtxs7iEkIyhSDkai6XV2wa+bLVoDuOvr0xyakOn17ocmhe3vPv5dnfsPsrKKAgJze7E3VjwRuOIjinCZFJFotpIYFN+ZvqDay+85fULa6rGcqHxGuXajrce+sffH3pj08ZLd9S13R1UqM7xw1PRehRrApmV56w/n6xF5cKNLx0n1Fk1hKc/EFM6Y8pPHG3rbd7j9D6wPN00o8kD0+UBGvVdfO9LX9hzzYUXfCVDr9sbZ78nfBpx9mkiwNvd1Eh9MM9CXvg+sTsCKgOwpwbRb+MINaLHd5yb32D7ZWGEq0ryaFFhNplhCmpZo4XbZjjoIlfBT/kQmVNYaGAAIcQPRGYMV9UPQcxP+c7J7Y6fUvaQ0IRw/0H4/JtbgQCM5y0sK6NcBO51mBf7zYWvNIXpcA1BOgKxcwryqMyKLCA8ZR/8x3t27+MMjv4Vy5e9tKZyzoxlYCGIm/bm0WPf7KX4xwMIcDPSGVseyZARuxg5hqGA2zFNEXunOtv6xT9+9hP/N4HwOInYX/roDc7HfvX//n7dBRd8PFur22zAvSLIlju+axeAO+sRW5O8K6fUzMCNxn5oV1x9xaG23s8ecHFl0tSOP+0+etmxPte9AZ0xL4h0dKwQSesbEvJYN/DdI8zvyQwG/vPadcu++LPP3/HyBMJjaDB3XHKR+5n/+skTt115+UfKctL/ZooGIzEnXDqoReqob+KcWiGseE0Mz9hjd1MIcSKnQll1qLPru286PMWjzRDZSZzrmhgvkyFlUqR8YvK5Ozq6rM9v3fNde0x/W0ifJhRDKQ4mZdQlf+eYgMbv71xSXHDn7Zdt+P44wuOUKd19642tr/3vf99/2do1n8nRaw5ZoY2r0GmxZf8Bqt+/D/RC158RI2dawU9EIa2SfDpN+YGuzm8/39JeMJUVcaDPpnh841ufrXO47gtmZhYEEVdijLyh9SA8JFyvFIY7PEI5evXfL1w090vfufXK58YRHicN5Qs33ep8/FcPPfHRq666I99o/KsJ98tBrMzZ0U51u3eTDW5g5lUihpbIVuSfImtPa0QJglHPxaLHeuwXTmWOk7lm0otkMjfnc//tX/95+5UXbbgn05J2kJmLmovzIAD8Xie1NB4X0CfRAHCcohrERNQAX+yhLYePUENfP5itFOi2ghnNLcynhSXFlM1ot7hRFC6hFPjsKcNNgixKP6XpC1uDtZYhfYvhVAQHnOx0TzqfrxZAk9xASwTk+YOqdFgZ/U4/tbf3kwVCYCGCZeWmNMrAStcz/uIYExN+/oRCyQWQuQjIVwI+Hzlr1AvQxzc2bQb+lYsK8/N3XXPl5a+e1uDHufigvV/xzr79n+xwe+70qFWKANxoHOTkIyn8mHxBmPAqRbS73Jrx/a+fe86WqY7nP++9+8BtN1z/mSyj6WUjlGIfmpjVHzxAXicUjVOQmyUkAk7xRDqqusflv72h37FyKs9+Ys+eefubO7/vi6lrwsCrEWjOAtMMPxPxKZ6nGZaQWRn587r5835168rlXVN51o++9NmGj91w7d3l+dl/gMZKMShWx/cdoSAahXECZ9Itk0Qw4Oey9RWAsHTG6PxDra13jCpARMrOyCMpSEZb31L8DvdXTWSljLzrw88+8xVHRHFHDMIjJFojcEyAe/5wYogUE+QPr93KjKxfr66e9cpSq2lKrqRfffebm668YP1nzErFUS4XUCOL68juXejz04G2C4AUSjxL5JuJgk3pA40eioXy3GaX46NTeU9vbdu1oaG3/x5FVm5ByGCB4osacZEII9FSKg7FHNkND5i/JcXFP71sViFbT5M+fvqvdzXfes2198zKL3hQhY6nCqF4o06upW1o3Uu05YxOKUuLxxJSoKxYayxttbvu2tjVkT7pB0/igtPjkCk+6If3fOXti84/9+tmvfII+63ZTcn53T5oky3QtDqbWhB4QmYTXgY3bDrU3k7b645RN7ocBvEiGMU3HxkZi0uKaHYusrWQpQCeJaSv9NKSS1P6mfwuxeFJWVV8DyEzpEWe1JZSvcd450mALQjKs+uBNz40R2YLfXY39fR0wgIx0qrqKmBxIXUPN9KDNvwRMPdc5pXYgLw4RWAQ4+O/z0XQtQAmexzayD50Sjxw5CgygwwDa89Z+ddzK6t7pmPso91j79HaNQebmu8KGwyWQVRNs+tN+NBxclJA83VKuA3SDdptS8uKd5zuWO79wscbr770gnstGtURI2IqA+2t1N/dLhjFSIErqpXxH2dreRXquUc6Oj+3yxs0TGYMbzY2ZL+2Zef3yGJdHYPloUUqpRYBWlHcKFaINGd+H2pFuKG6JP/h88uyeifzjJHn3nXLjX03X335v2catS8oAuh4OdhH+3ZsE+93+JEsqhNrCbSPILGk1xe4882+/rKR9wSW1DDnSuqjw7wmdd0PH/7drQ099s8bsgtMcb0Z2rFGoA2cOFjhw+Zmd5+CWmdlWJ9dZGIgoakf//mNu3evXLzwu/BIDCiwHzgVuK72KCHyLm460pIXOiF4DDPYNqfvzsdbWxdN5ukv7jqQv2Xfvq/rMnOq44iZMxq3UOhOskhxRywS3ruZauWzVxblHprMM0aee++nPtJ/1cUX/iTLYtzECBfI/aUOtM0Iw3XHiT68EpkvSB9GnJQSTIKIkfQFQuubB5wXn87zJ7r2jAgQHsQvvnn3a9deuOqb+enao3o8FZop3BsoFsQmaa/dSQMNxyju8IvcZkaQ29neRpuOHKQWdAL0Cx0bWE8wQ9fMyqd5GenQ1pHqiUUqSf6TpzEllQb3CMFFEo35UYCHCtmEZjtkgo+DrzURkZnnjDQqOL8fETSq63VQOyDv88wKOmdOKS0rSqN5qKxcimZWlXBtaSN+XBsEo0C6KISbDotDhw1SlZ9OFdmo8Mc9etvt9OzLr9GAB9D0xZad689ZPGNNgzY3NmY+9/bO+9S5JdWoBieA2kmMlYv9xP/jP9CKtWYDlILSNNNLa63jp5pORL/k33/wz184sLCq7LdqxqxHfcVAcz2RG2mQyGkVFh6OpDBht0UY8ZcAIpX2aODyhp6uJak+h8977e2d14UtmVcHYDEHmUlz+isrGgLoEVp1sjoa2l+GXrttXkkBB7NP+7jno7f1XHXReT8xa0Lt6vAg9TccJj/2iKhg5nU0Sq8c1GzQYERVsbXL/s2RA0B6+qTjGCdaMqc2nSe37J21aWfHPXk1i4vC6EsT4RRr7G/2FCTRG5KFdBpkXZnj4X1lOVo0Dzr943c//O5T5aUAf0TRMXs2urq7CZF3wViTglYoFPjowW85Q0ulNKFY2DK70xG5cTIjePT11+/sVysuVqKXEccquReSFiJQQC0lbsTrD0sO8cmwA0rFtOzDez/90e6Vy+b8VBHz2JB2RMHeFho8jozWgAOWDkIDwj3Iqdfc8A4qFWqHIwChCKtV5lZn9K7XO+2jujcnM/exzj1jAoQH8PNvfffFC1av+namTl0Pw0/0IleAGQa9g9TecIQcHY1gmGHhPgogLnK4uQPurGOsLYCFgsEjCJ2NzbIScYMFWTmUh42tZ/BGbG+RNsuFOAnQulNtkiQJRprv0r+HFhv/S3D86SENawXJfutJuAjhfsDtgzCjBhEsqIcbrwcuqGzkOa6qLKbLFtbQ+tmltAa/L6soQaU+WuQKBHkwMVStpgP8uTorkzKQJs+JXdsO7qcWCFytSu1Ys3z5386fv2zKmEkTLarXNm+7AXGcdWrO+uLME0Esjn1IgCQnqCxcFY4Mk6l1ontO5u+XXXTB03qV8qAGmp8LQXVOj0zGw5K1BckeLMKWZPgTpbK4rXcgZU3s6S17iuvaOz9rzskzcUEoV40PMW72cQ/ZudJasWi1TfM02mnrRvCzr39re3lx0dMc6wv5XNTV0TYis0iiGNM+maXFrgs7wCo3DjjLR9BzUpZE8lrsJ7VkjU98bNy2/eagWrdKn5YBD22isO8kuSWBSDINuVojM82yZ0l61rTR66orLvtzmsnYDhNExFRtPYhHI6YpuYyTBYvSzyEFA+sCyNDXvtzVXzTxDIl++Y8Xzzna1v5xa0EhTCvUY7C6xNBECc0w6RLntchJPzqtuj8vM3Pa1v7Vl1zydnF+7jPhoA/1REHUkvSLGpnkfIT3JLEBhSdAqDhErkh0RdegY1KWVir0GM5NJ3P+aZ/7i29+7Zm1S+b9DIy/kwtrtNicTHRXfy/y5g9RV0MtqWGxq2BmupC4vu94K205cJT6PGzGA78H/18Ew2N9ZRHNQa58Fr7QIOOBdcQkquhobo2JBi6gJIZj0Yyi6U10j7H+Luo7Tvlw3QL89NDihXYLE5wTHjPANHKQnltmUNIcBMdXcAJBcSllwIUnhEjISyUotCy3cNklUSfqSd7Y+S45kEtfWli0fe3KVW9OdZwTXff6wQOF2/cf/lxB+SykuzBWmRQoF8yMYe8T0PeiiIq1MK3Ga9Zpx8u4muiRp/z9c9df27lo3tzHVOBIDqS8hqFwiGNEIoVUh4NDCDYdAX9pw8udXcgWnfh4Y+u26xRG03KVDpXbI97b8KuFZovHmHWGaa/+vWj9hsf1Bv1AGC7CAaT1ikr0YWtyeCxPTB9/R51Efs/g4OzhY+TeIxPPeOpnvLZ3f+GBurpb8mcBdRvWmlQEm3gliXEJ96YIpougbyzNZJ5Weq1aumjfrIrijSqkBkdCPlFXEocwEUWdIz/CJSzFDLwBf5Xd5Z6QuR5o7FU8+9obX1TojJXZQO5WIhGGldzk2hhOPaGIYk+gJ4/NrDeclktz+H2vP2dtaNnChY8YTSZHFFac3Y76ObjJBAgQW8ZsFSea8jHGmSg0xvcoXTUBQv6Sqb/h8a+cHjV7kqP75E3X/3HDymX/BX92hwGwBho2ALFRnD29IiWvp7kZhTQww/A2OFawt6WD3q2F2QbCMA814iXl4pLVpTkAYTSTAVJZA0bCAukk2PVJjIu1I654ZcvFYjYM5cQLt0XiM4nbjXlq8l68oTTQ1vRYbHkQCCWouGY8Up6bAWaoGnMx4t95mOec/DQgcLJG70fRoJbm5OVSNoSoD8jBW/ftREvdI2Q2WlrXL13124uWTi2Im8rc3t5zcB00zYWGjFyR5cTQ+4KpjWGtwZPhQS7/uJXSqTx35Dlrlq98G/7GPhYaXAPAsCAqRjuFCc//Ca08kZ3CrgbGEIqojfM7bc45Ez3vlf2HC7ceOfJxfVa2Nsi7Q0CmSBlEyWNI02N3RVQZKMnOgS9teo8Vy5YcsVrSjqKpltBomWnwMRagJ1eXs/u3dcB2UuaNSoFAVOqZV0OTgDLAOCoTTurFTW9dPRgKLNUBR06BRmwMxSGYF2v/8O0klQlRfc+oBIp4wGjUD0x440mccG5VZbSmsnyzEUoNx0JGxoxOulWiPoO/w/q1NHf1TGiZvr1v75q6zq6LMgqLSGNORxwFWY9jKJhSXArV8mlp3ajxmzYri8d7/pq1h3Iyso6yi9gPTwRjaA3nTyJ7FK795Iev4YJKZzS8/o2O/sxJkDTlUydeISnfKvUT1y1aFPn4LTf86rxVq35uUKs7xLYXcM6AE7G7qL2xheydPQBWAw4OTFH0dqK9dc305u7D1IPspUAY/nWo3zkIi85FP/P5RXlkhcYJjFaBZHo6BzN1DZgRuy2mdpzINklen9SChIWU+HBKMwfESoHvs7S8DO4oIUZFfjfE4BDEOfsf0LyR0uHPNyh8omiwDE2vuFipC4VUL27aCF4apYLs3M0Xr98wLeB3Y817//Hmm41ZeUgs5x4eUhB5eObayHgUWLefP1Oj49hXLV648DjSwft5w0QZKCpxDGWAsTLA1e8Jq4Txn0JKbZ7dHxBFreMdT738yjUBtXqpMSublEBLSLo2R7tGDYsLVqEX74LDdtN6XLFsuSM3N/cQw7xEElaW5EY7NeaXfDDvH0cotGqjrW+oKAfowMKFNbn2AOKObDCMe+xq7jLsPHDoYyh4VGnQDpr971xIxSM8mW5SoFnqi4IYtjI+LZXgwwdXXV5+WK9WONmFPeSBSAa3h/8UF0muLT4zFI8v29Ldbx1vonuPH78optcVpufmJhJGRrrBT75aQKoAkxVbdgIKTm7JfOTCDQOIOTar4LkQtByJVJGwtjgmk1R3OKDui8dKbYFg6eSeltrZU+WSqd19nLM2rFjlv+3mG/53+eKF/wNB0cMaI8NMM3ipe8BOrcimcCPfmS0KRtns8wZox9Fa2lFbSwNBl2hHq8GGKrEYaCmwhCqhwZu4rD/pukhkJSSZ3AlmdyqDl3YLk1zKvlKzRsuutTEKMkZurGSaovTzxKQ5sJvEGJLca1IKoxZCMUtnoFkZmbQWpn85cKzUCSaBHDWIQf6gOj1xqzA60ejR1TPXrKSFaANsBUtg7ePVdzbTcaT16Q3arrWrVj62ZlHFtDPr5Gz+8fa20ra+gcWZRcXgANK34zXuSgjNIJb6tGph/NzLVsx3G3SaPtE3I1lnMGwzjWRezNKYrq5QZNXu3rYxYwI7m1r1+4/XXQVfvlaJtsBjFdFI7iNmP4Kdh/FuU0bGnczGyUy39nBls5YBRRPHyPWc/LeoZYJQB4bpLE80nj90AQRI8j2N974mM67kuW9t37Kqy2ZbQnCvKpHKnMQ+EzlqXOSbcP8NvzcEGZN12umVl5XZD3gZdK9knj1e7Cb5NyBjsPtHpZ2DWEjhWPPfeOBoVn1b6wZeDwYEz0VPH77FONaZQDhG/kYyY28qtB3rmqyMjEZGHmZEZ+aVrIcONacTm1IqGUiyLvYS+GKxbLTqrpnOcSTv9Z4JEB7AhUsW+++47Zpfr14+689apRepeAHSgepshrrQq7y1th7wF91oIMTpvBHqC/toK2pH9jQBjFBAOQNsD4t0Nl7ueWWzqBAZQZyhpID7J5m1kor5zpoq48sI/y3eSprRKNxZXFw43EQUMOSJoq6kYBgexJJyzVHsJnhmIiso0Z41xB4BLFk0vaFCFDStzM+my+eX05xMPdxTiO6wXxVjYFbBsQ2OjLB/k3daH6qTGZm0MqeYCgDhEcUCOdDcSK+98RbwmELRsqy8Ny6/cN3bM7FAkvfc09i0AD2cS2IMW45OjeLgQqZxdCyI4ACY67QLEH50VmbmgBKaGL83kfPAfUOEH3jkgKT0UX538Iou7vJFxgyaHjpWV9TZa1uQbs0WFrEIxI5zwFmCOoy4PsoIgTNwWCzpbobs4JoWnicLieECc6RbTcFQ7XFtptsZZiBEOtJjA/q5NLQpWCDisvGmtX3fgcu94bDFilokoD4LkEbJDYyDFTix9k9xAQcRM3JNN7nSdAavRqESCtTwgsvxnsNAhH6FNq8vFJk31nn1bc3VfT29czNgkWpQpBfFzRlkdazkNtHVEYwdHx9cuKllIUyCGOnp6QMMBy+sPE5eSWL3jfqmpPMYbHIwHFg8icekfOp7KkB4lJcvWu75zMc+ev/qJQv+ZNGqBwBLJ6qXlQBhdAz0A8m0Dkim3QgYBYQ/rxfMdMfR47R5/3Ea8EkOK04LzkVy+bmzZ4MhZ6LyWWqWy38Ng6lzVfR4GsNwpsNaA7B4AIKGmwoXyHBzVcK3kjRcqSZDqs2QdpoQKviInhCQ/FoIDSUwoBRhL+o7gpSP+pUFCIqfM6eK5hSi5gN8mHdSHybRBhTANuQJdGPJcdTZzXUiCKgfcdiooaOLrCYLVcBigZ4nrI83uRq7p5+sFuthWHP/u3JO5YTQ3imvilFO3H/s2MUqjcaoBMJpEvF0bGeKdAN4NPyw4k7Ppzj2oMXmHP7uksIsybg4qChqDxIHNlxOSKE5oZ2PuHd7Z0c+8lqyDSZz4r1PTLEE7te0M4rkk5NCgquMxTGaW2ZYpTmEjMlud8/iUwHUGUcf9lPoNPGspCclPqOevqe1XdFnG1ikAUKsycjVS6mxEggUUUSf4hhSPk2q/VEAji0hMMcR6UmXMnMJwCspfJFY2VgPamlrq4pGQ1mcri7g9kfWfIy4kO+dCGL7OaM25QmkfiK6p0uFsieE2Mm0H6ppS/A9FuLoQ1R6wBOZUkbeeEOb0QyNVGlyzZK1jie3bflp1P+0cc+BI3do1er0IPdSAPltgMQOthIVqMvRUyMDPksFtQ/aaDMAxrA5aGnVLMo2AkWXLRELAvKls0jT0UH16DcywGBmHEzFS+eXeupx4ktpo0oaNYL7cIdpieHoT5zBv51YnEJ4iMAgfyv+D8KCc82llxmLw3fNbTZhbZgNKhRA5lAJQBTTUD2uREWp3+GGKy5EXYAD9+In41dpoNnrDWoyMpwzXnU/egagWQx5bA5aA/BJtDbFPOLUAOTWXYeOkB+/15QVv3HesmWnXag33rva3dal/ty37luqtqRDCwPaKOguCosn1rujoOu0+oGHxpkMcIw68JHMbOgtatGjJYFCd+qF7V3d86KRmMVssQz5mAUXHWWeI2Y1I3MEi5Dq3kfcfbg1MYpbShkI+AUIFc5TgV9zwpqYLEPrS0fSjcu/j8n4haNmrHXR09NbBJDDOQpujAV0iFEPXiTiDic9Y0ZoJZQ3hQLwYMkGTKMPSUD/Sy4mwYDj8AEBFiRvrHk2NTfV4O+QH5IAYfuKhdR4Fp3E4CmEurUZmevQWBlpeDjUmdiUp8oIyTKMZQYjEX5R0+rmPisECBPk5rXn2p5+a9sPwkG/5WhD8w0APzOL7nXQ4P02QLojtdWgqKbsnDwGRaNONCR6c/9RxE1UdM68WWRl0uHtzjIjO6ikkAKN6D6AejM7Oyw5ZiY4ARayIPKpRzIlU4UsBi3eQYbOSE7kW4/uf0m4p4TWI20SqcsYZ3JJ/TnS2Z2GbI2S/DzKBdQ0Z1sNOnzUAggXOyA4XEAXDuE6RBSFWSzcYwooZg6pb4Y6KiUvaVFlnGGxCgRfo0IR9foCjq3v7shqQqYaPBZt8+bUvLpu+YKZ0vLFGPr6+vK9Xl+BITMPrgoUnwiGwGbX2PTk6xhhd3x/9FjbdjLfJwQ2hpOCz1mNtXMioDDiMQMDA1X8Fff5SLqKJuIAeFXjMtrJzGTkuYgjiIUWxDqMcQe7UW52EiM7gQQqhq1SqZFLMHwGqSnECYifcS2Qzs7uwmAgnKlEIzMtrJChNTHOhIeF1yci61TIxlljmK+k2KVyJLtfIqaQOdb5jkFXMTNgaBWS4OG0dRY+E3stUyN2KgMddg7ezdAyGDJKJd1XUjTGUOrgjregHca08/tpv+Ek6XHS6TdsWNv7xMbN3/rTY4/rDre0XIuya32M0xfRbIibSfWqWqGBK4EukYFcbB21OJy05SiANVVBaOizAB0AnCxQtTwd4H4VFRRuaISGgcuxADizifO/+RjLR8qsiDt2G/ASUBwmZfEMV/8SwoffkVSwKLmrpMJD1LTgG6tF6iaGPHB8YG2Aw3T096ErnZcG3YjlwKziokjRehN+Y45njNQCRf8UBNX1eL4JkAQ1ZYWodjZAmIXCjW3trs1bd2RwulZZUeEOQMTs/unpED2Fa5Eqm4ZMIMvwdFbxu1jLCZC8ESuXdTDeZ9LSnpFD3DdprvNTpPfKb2VMeYrWJGPXRUTCkRyeFzMhkY7JDFm04x39kPRLASA5I3OENs0WnBRL4HhTYhjD3XZJJjhshDyWRA+PGOrBk9w0yc94bhO5m8TajmBdj8kEvV5PBmIBgKFCjEYw1YRSIQaC38XL4H72yboQyWsv2eozcYhdiAfys4e7nUc+S4L8kISAZI3gGNMqRQq1OZn9JprPCSih5JyS620m5jP2suMRSz2WThxS+cIJMFPxl2SgXwKyZCn/wXRhDSfELRet7/rzaxvvCz/3nP5gfd0VqrhSY4RbiF+ip72HerkJTbma0vMLyK8MUQPat0bCDjJrIrS8ApYIAmMmNHaZZQFKZmEJeonYqTsQpUHwDVFWIxZPQm4KgSBVbCbjGgyCBq+TJEDESxratonfpQwHAZKIjx73tSCjymTUUCZ+ZkGwBfHCnHBLdQDYcMCNVqZIDuBOahzk5BacnK8voAeSC32YVSTiKVz8pkJmFnz4ReYMmpWZyzUisQG3TfXKO1sK27r6lRaN/ujaRcv+75IF8wdnevnCVWGGGT8KXvsET0YO6VgW3+mOGZ4xVgxPOvjfYyTOifPwd1bJx7RAAuFQlsgGZBddQkCOJRlGsOAZESBYJUAmlyaZjOUoRGxOYh5J4Tk0Z2kdsYtCxMNqsqyx8z/2KdBJYppDwjZx7QTvYFwNGhZpOmgpMd4xUt7Heh9gdjOinWMkE1rikpKeEKJsrUiUHXtNhMJWSXCAfpNC/Z6pKY731kZ3YSXWvgFzmHYBMpEqcrr7fErXf+LSixrvuPaKr84tKHzdiDRQbkbFPD+MmIID2nwX3Dd+NKHiBvVcaNhoD9ALu+podz3aRYYYxA2FPDh/ToGZ5hcbKVPjBeSJS6T4cgGcaI+ZBEHDCLmUgAEBRR47Fhc3tDKbcY0a3bbxvRbnwpYAgCGsE3ysWP95SC+qykynpYAaWVJVSgvKSkiP3ia1wGjai34fR3q7qcNhJy98rDF0rENbNPHhmgTRyztxcERR7EEhkLhKFoAtaqCxQjgaNSGaXWCgIrBusBJ/e4s7snHzDh0r0fnZWTuuu/SyGa37SI7R4/Ewoxhzk03wkmeEuSafyfrgSKExTu2GAllCo26izQd26/1+X7ZyHItj+DwFbIo0sxnSqDmmFvbr1KqoxzMIyHg35AZicsgwHBnPE2NhFxcUFX3MdyjPotk/tL6E6jKlY1zXnDfgM7NbTTDXCbLVRjx9quOZaBJCD5zopKG/D0/DHQOz5YV3d2lCoUgaX8OW3gn3GPvEU39UymNK6cSkC2vE8ycezwnI4JSek9pJZ5ULa/iQP3np5Q1/eumVe/7y+BMPNLb3XBwM+rXISUT/bD8N9veQGgHnHPSR1gJ0kIFMmnsc9DbgrxlgcemsTFgQGsrADl9cmCvBXrcBQx+bj5tasal3gunEyICguRrxEitYpEWH4jCcUYDqvQI9AOH86C+ApWlATAPph4TKako3IS6B52rwnR9NXuwOF7UAYrwf2VE2CIwoC4IEwBnse/E8KUbPbjRplpy9k8yTlzq/sWUj2gTxlhQxk5IMK+WnGyC8EBpx+TRvvPWu1gb8J5NB37Z2xYrHVs8unZEU2ZFLh4Ox0ISnXXtJbYmOedYpgknQVBCX/ROjbnCu3xwVlRfaJb8olBZx2ikXmbHbSLy6MY+Z1r4QC/P4A75w0G5T2QASWJSejn7pWA3smBLQ3cmVxAWqEC4hD6VpFX/65LKFQ/DhsDpO0cpTS3PFDUUj9dEP0OtsWw880AktED6J911y8FL6dwKJc8RUI0gYE2jGCU8BR6HYmmM3+biHtPZmSsIMe/gJt+Qpe/bUAfKUp114n7UChOf/qSsvP/7Qs8999W9PPfPzpvauy1GtgbxELqJB9lJHi8B/zS4tJp0V6LlguPXsztq7C9/W0OLSEkCJGygDJFuAanUWMsruXrL5Q4SmXcKcZ/2JAekMgAgpMmloXXkxlVgB243qi1KLkS6qLof7ScrY0MDXq0OwEBligM9Gdhgyqdq6euCm8qCjYBgw9BhXIvNRshRT21/DtWf2bXPBIVeZZyM5oAKQJWkALUThPR0+fky7B6CJOlSsF+Vl71y7atme02TAk7l8KJcqmQKZyu5gl9FkHjKZczlAP4r/f6JbiGjVaCexs21IXCRcWKJHaWpHyiemdjvprAyLuUujiHoAPqw/tm8fZebmIcFDJ4pc+b/kRPjhaigt6Xrt67MLs54b8QzO0RhSVibifcOunchynOjv4011Rug11rsdbSCCJqy0gZ/AGzG6IiYFrNkRe7I0ENllE6kPM+amG+m4PYXXJF2Hwy1xzFeNz7TTfcY2+GQ2ynjnfuG6a2v/96knv/rHv/5d2d4/cInSaFLFuMgPikFfD+BO4HbKoSLSoqeGC5laLUh53QRLxKA30WwIDiM0tnQs9eX5wNELBegQLBEH/u1lXQXXclV4nl5N51SV0zwIDS7nY0Gg5dgGKk+9IvAnVYVz8roDFsfx9m5qcXtEUNwfYpRgXAUBI7RekQqUqEgfschOWnKJYFySC4h0YAgQTTiGbKs4VUIoVmWmkQl3G3QHafve/QjGA2U0FqlfsmDOny9asWDGEHfHeB9jFeaP/fp4Aw7LGpmuNZG4zykMTGiWY7I1SSvUKKVis5EHJ8FBE02gwkuBWE4DGI9Lju1xnp6Zzp9T1W7Wa1qQOZbt6u6iXW9uovlLllIZ0KhVUCQklyuEB3ywsFI6K6pLv3tLdeXJDa1U8IXiGKp9wISmR4hw0vrJTHR4jCX5TP6ZDFonqDLtTGzYejjpdY3mypTS7sXoTqgSitg40CoTCYox33VK1tAUVspUBzQ8y2EKjx39kqkOZtoGkMqN7rzx5trbb77unvycjNeRwxtXcSARDNjvd1N/Vyf1oe4jgOZT7ACyo4l9bWcfvYbe2XV9vUJz0IMhZ0HorAbkydLyQgmYEDj6yIESfSuy0S6yGICGRliyKBSAywguLXx04CpmrDjW9XgXtqGf+zY0czncb6M2d4B7MCCQrxFxlSRUuzSfkZkgyayQE7Mdiaaa3HB6eIoKjGm0uKhIoPPyUdvQQjv270ccSElGk3r/+eeufjMVuk3jOUJzF+rY5PTOmWIWQ5AxIp9/tImOUvCFc0PguWPBaHAa6MmzG0fLHMaEBVmmkdZDt7rxgvV982uqHkUXdjuc8dSFotpDW7fSgbffoqa9u6mvrlZ8jmzb4okN2n7/2SXzR6sHio58Z6m9w/GFP1yaCa2d3cEns5HhqSfD6TLsrMmtotSJO4X7CvfxqEqFAI+QEmSHRjBeksaIYaZipKc+s2GsI5WLRhGeMyJAznoLJEmsr9z+sWP/8de/3fvU65vUzX19Fyf7bfv8XuoF3EkEGRLZJWWk0xvJC+vxAFpbhvcieVcbpkW5JWTgOAZIuKC4AH2kwfg7OhHg5iA5MroAaGgU4QmgiWK9iHAFp6dCh+D4gxPmR7PbSzva2qkDPZdDcWxpBMQjSewrYelKnQI5DXiqB6dD6jEeQJMA4wt1JFiCbf1u2vjOFursB4CpUW1ff97Kv1+0aNG0I9xOMGZhVk0uC0XccerEmJiIk9+gjFPDnWDHPiQhKTKwpLhVihm6MzbPz3z8Y3/w//HPaQcbOj6D4FqJB7GQxq4uoMIaSYcP0kz7qkvKn7/kist/9b+jzItTcaUaIykIPIljojkJDTvJUMX9J3Hz9+pUHm9ynOxrSDDa8YrrpjqtmbJAEu9lZB7gqbbACEtzRgTI+8ICSS62b37s9v3XXXzRPUWWtNeMkUiUG9dz68h4GN3psLFs7R3oJe0jFaq9vVEV7Wvpoyc276H9fU7yAtuIS0pyMGN2Zy0vKiTkbJICGfOiCyL+Bm8UApMnGgbxduPC8i4Exw9D4PR6fOhZg0JFxEUiLF0YrlrsoBMbk0PgEj7/8A+vpZP7QifnxBk1yd7sog2mKgrXFVKR8VzODjtUe5h27t8jWu2iKHHTjZde9tJ7sPkQO4zHItCCGesoNQ1WsJeZXF9iYw/LhhJkGdM9IwU2kYA3OjrwECQJtGlJFUh56DNmgfCAL1+xwnnPnZ/7wfXnr/7C3CzjYwX62D6twl2vCzsPp8d8L120ZO7XP3/TVd+9ecU8dBg69UDuA/IBUp5LyksLyz4C2kdYKCV7srBSN04GXPLeCtSPpBYgTHk0QydOyOz5ZUl97aW0XIErFY07x3pUUviyQiHhkQlE4XGPxN6fcCyTn564gt3CY1w67nuekXX6vrFAkhS77+MfPfSj//vL3Y88+eT9dk/gMs6wjYUhCMDU7RAi3Fs9Hym1CgTFPWB4h9t7Sb91DylXr6UlwJ/ipkwlyLrSApOKe47Udg1SDxr29OZZyZrGEQd2XzHDhyBAPrADvzW6XKh894j6DiXWvqQCnBAaEmQZH/xTyrmfaJEl55OsP2E5ZEHgvBJNsopMOpGrbnMM0sbNb1EHrKmM7Mz6NcsW/2Vt9bxphSJIcREzQaKoBcH/QURCOPJMhVjkuMPYN8FpMyZETlKnh2uWSoFMy4iw0ntQCDgo0dDIr9Oo+ZWOtQFHaI08y5T4wPRz6GEjvGDxIp7AK69ufnNjc2d7gc3nNaWZLdH8nFzbLRdeanto3JeIUtaEBZLiu5bWsYhdjT0tMNQg7gtZEFeHOFPxpB2R2A0jSJfYEzPCyFKdW9LlyYqitGMRc9RqEFw89UhUtHPvqCFLS9SAMQ/HzwnsuUmZe6mO/8R5I99NQihOZDdO/kHjXvG+EyA8m+98+uNHf/jHP33lHy+9+P96bc6rKRbWx6EZRNFYytbbBWweVKvnZpHagPgEguTHUJHOHf0yjKuQZWUSjZuycf7ysnyEVKLU0mujY+02UhVrEX/QIBYCpF+wki6wyDoUAtYODpCT0ySVHB2ZvoMXJls9ao69ILMsz2RCr/NCAUvvjQToXWTeHK1rEJlf+dkZ75yzdOFb0/f0Sd2JQ0DhUAj9WVAhr+O8f27zyhXS4zuFkSs1iZDtpIaUYFIpXpNgooN6vd4xziVi0yehMMTPiTfkGWOIl62/gHM52lKcsjiN8bT4J7tHT0UqHvdOE808gPoPhj9GLDKQCrSHBAWC8m+MYyb4TiJekTp1JMSHWDjDYG5J/aqUz0xJ80j5bidOnOi9DJ05ijWY8rWpjmsmXmSqzz6t8777mU+1fOs3v/3Oi6+/rh0c9Fwai0eEEImH/GSDxh5Dm1trXg66pOnIg45ue+u5aVyMrjhvDRWiqx/3WChC9tUyWCJoTkRdAwO0Cy6q7CyrKETkfdcXDlA3sq1sqBEJARJZqB0JN9e4BQLMhCa0QhIKCs7TwC1khbCqzrZSthnZNXhMt92BwPk+GgRullarblm5aNETVy5a6jotok3xYqvV6segfGE0Nwr6GFlYqt5P1lok3XXiq2EYQVw/InjYDBzCBkqY8kKzHWdrcLovIM4AVqlqNOq1o2avKRSiPA/QIXBRctrEBPccMaVp35jTRbKkMExmYfFPKeNvwmyscecEQezEHvL7ImGT3ycVOSoY6l9UbSNJBRsgyUGH2+pc5o/S+DGhQ6Y+7+R+Yp+wCIyPeyvRdAmnQFEcMKrVfeOcPEVBMIlw++QmPYplOKMG8Lije98KEJ7VT7/4T8e/+j//89VX3njrF4NO76UwJ7RxaOsBbwhN59l5oqTMfFgZKg11QDh40JCKLfNrzllBZagaZLKXmfUURf0Hb7QWMO12gDRyFy+uWmcnL7AkKMLCQ7w2lPkJFF7eW7xA+Q6jm5InU314/Orkhc0b2SgaY8H6yMtCxpgU+9h7vI72A7ZeBTDFrPT0netWrNw2uXU2fWdnZWXZUHvgDoeDAIQcpGwxe6n3xhDSUoLdJOUHb1DunwUf+cyusWH+4OH578NhNHicXMhi1Ov3XJCRMWYQHcJPuLBExXHSupoYNO+MWSBTeaPC3TiCBSaFyPj3Y9fj2IUwaWlmrAnyhkPBbDdcvEHg1Wm07AI+IXeGCykGIeQaJxxq0HcGBAg/euIITNLlKgQq3q1erWwAcOp4AkQMeuI7D6OmtCanKHgmfMujCPYkTxlXkMzIeN470TUhnVI74ed33dVw2UXnfxWV4a9xNJ3jF4B/QFqvFym+PTQ44EDv8DD5oFkOAs1427FmenE3aiq8rFQjMwt9OCrSNLRsVg6V5aKNKV5+GJWCkbAOPUhQtKwAJhWgSET7KrZwplHX5A2mA8uyYnMtqSgnq05g+yLzyk4vvfk24Nw9GKOicdnCRQ9fvGThe2J98FvIyMiwAc56kLXMfvStj8CiO5GqLBDsTnlZiZoAPRIKRq38Tu3tjn8WCwYR+zgFffWEkBaQ+xg3mIUfltw4vctF4RfILWmwMS4wm45Bvsf3SDUWd+oweXeMDf6UnZ1pRzypXwflyg0r2Q2oFUn4SmthrOfClcZADzOxJkaKyTEpnxQGXFlnVKl2XlKe6xzjZLHbk+tgUkJkhgQIy70hHpRYqykusRlZzu97AcLEe+Bf/qXu8vPP+0qGxfQy4B/8ot0omEYQzaf62zop0OsgnQ8YFgA6dPojtPVwLb26aw+KAf3kTnRsK0QPiCXl+VSZByRdLeIdWOZcdyEVQUkol1K21EQkS5rPY70vCcMf+R9CYdKgg2JxhpkKAFnCuyqAHiTb9+6l482tEGRxmlVc+vzVl5wZzKuxFuKFC+ZEMiz6ljigYLjJVxjCl6077oseTmicJ2edcSYa+0n0aeGIKiPFBT6p05DqgFZA8PAbOKKVhIVBRhDUXIEvhs2lhkxgfDH2uOvi0a4CnWH3OA+JwfXCCydxSmqukMTJ06hWTIoME548tepjMfdxw8S3X3rRgEWnPc4YXCGPh3yA8uEGPkMuM94pgqUn6Si5zGDdW1zB4JhNvSac0DgnKJVqvHr01FHqh/U+OfkCXis8jiBieJF4JIjuo7vGuaXY/VMc00ytiRH3PUHf4eMcmZ14GvMYd/oTccMp0u7MX/bze/616ZL1535Vr1a8GAkF0AEXzAO0DQI7yt/VS3FYImimgZgZsKv8Qdq05yC9umcPdfj8ggliyVE5sp8Wzsql0hw9QHNDIo6SdAGwZcKfRIufkwTJ8KLA0QoEmRoSShM+XF8Alxq7waKoKckx6mh2cS6EB48iQu3tbfTKpk3kRA/4TGtm49IFC57csLBqrPbcZ4zQVaWFm7lBVsDppO7mFiDjS209hTBkLV+a3RDqKw8sQtocjy9cMhODjEejGq6DUCPxYEgzBPNn1yP74DmiwZ8kzliaIv7GJ6tL6sYaCywOYKMkYQElIZLsNjnB+M9qFxbGPlVGJl7neHMHYnU9F+KGYX30t7VQBMW88WRLW74wmekklC+2Z3AuOI7N45k/E2sCvWqEtmA2pQkFZ8x3jd3IOGLQD1tLsjNTasY2FM9JnZqpnzk5YuC+w5Sck67lfugnUtunbn2mPqAPjADhKf/yG19rOW/VqnvNGs0bsTB8U8gY0qD02ON1UReys1wDfWgyFUYqahhNnQZp59599M7uXYAK8SZQ2CLIwtKLavV5mSbUiYjexkjdxQtL1Aew5SDBwadCupOtEcaBDagQkAdyghYterOwwZah4dSsNAsC05wxFkfNx2FqQj0LM76i7OxXzl21am/qr3Pmzly6ePF2o1LZHkGMqKn2GLnRLVGNwhrBoEdxlTNT90dCxgGPd8FMjApFoNYsdHnUo3/9cNcCbxqOv7DyEBE96gXqgKcoLe2R8ceBQhcO24iU3+RngiskFvG+ECDJIHrq72K4NTb6VbPKy3Zr1apBtkI6mpvIh06hjKSQRAse3eWjhHLkn5v6OFI7kxUZfzhiVgL/zoymcyd16ht2i2TavB5ZjzlGw8s3lee2jPMEEVVJuoySP1N0ZaXCIFKb3MnjT9x3uIV88npNxrxmLIw/bDwzMslJU2UaL/j99/+t4YJ1a7+RYTC+wdoR9yZnH7jTZaP+zg4s8kGKIpuIG+EMQHN698BBeufAIepBtlUYjAM15lSKRbgGXQ0XIqidBcQGLQKEaqTVcrrtySivqZGPrQ/OT1HjjSoRiFZHfKKH+9KifFpUkEncgZuXwGGk7G6FQAPjBaRKvG7Z/Ll/vnhpzXtR93HKG6murKgvzMqo52Zbzr4eGgB8DAtjCOtR3x5vNh82aY/ft+KwP8bR1Wk9kFmXk1VQSBo93lhC1xueaZQszlQhLp6pVf9jbnHelhQGcEo0ZbxNmPgbPz21hZDCAGbglFPGNjzBYDzmOdFYli5dtFej0bRyWwWf004tx45RHKn0gKGHUOfeOyP2C7dgBYX9seji17sGqie6/2T+7vAErO5QJN+Sk0t6oFiPVQjKz+cVa1LEuiuzrY9O8AyhHIymyacgRGZqTcyUZTMZcg+dO1OTnNJgpuui//3efUfPX73y66in2KqIotQci5lh0v3oz8HV6n63S2itnG3V5fTSa9t207aDx2jQG0SNiAoptWqqNFloeUkBLYV7qSxNT2lgREoIkRgAGWOAgB7qfDZOle9wADtujaiG8NAAeqUIfvuFAHpcU4NqeKxmXtAOZI5t3LKdGtra4OJSouo8/7U1y84o4u645L9mzbrg3Iqyp7laXhHwUQ80zijSN5XoFMmFVVyRL9p9DjvCEMb9Ad+6xkHXOdP1bvk+z+w6mKsxGzILZ5WRAkWhwzczWx8isJ4If0IQtxcZTf+9PssykS+b/z7qOaO5KJPzSeAlnbX7KIXWq2O8GmwO7qw1zvHFW27qzsvL2xgG/hyvC14Trh4u5mVVTIIJSX74fSTjif5ovLpp0HHDdK6Jlu7u6ohKk1s2Zw6pAYLK8cvhCkXyd648B6QC5Rl0z1ZmWceLifHwJKCJSR8ixXxGsg8nUmiG/32EojAjguesXfiTfmcjLvjtD75zYMWihd/VqJS72C+r1gCKABaEECI9aDELJN0wEjp98OV3ekL0/JbdtHXPUfIEGGQRjaNwv0K9itZV5NOqynzRJpdhRtLQZArJUpM6RIAZAUYDnlWJ/ubLsnNoGQRTJgsx3GkAFd6vbt9C7+zZS3bEPhAjaVk6b97fLl4yd6bwdCY1/uTJy+YveMNq0DZzpURnaxMsunaKBLj5neSTjZ2UtIMNzNlwqNk83t1921F3eJJUG3uIew/unzd70fyc9KyMoSZgbBmKKuGEezgZSE9TKp/80vyaVN2AU2EXCjDGD+I+Gp57PubLWL169YvpJkMHA5Py3mqpq8Oa4AxHCBC+aoSCxe8Fa4Ka7I7Pv97eVzOlhTjKRS1tHcuyCvItJTWzgULBVqn0SobXKPG/uY0tlIzW4oz0365KM0y0v1KiwRhzmLb1Pl00mon7fBAX/hCdHvnF/W+uWrrovjS9Zi9rSBqsHCA6kRdph73dPUg9BLYVdj8zcRuQdjfvO0hv7z1CXbBE3KzJ4nsLPnOzs2jdvGpaW11KNekaykX8Ig3ZU0ZgcOnxu5Y7rseCEBIhBLGkuIAGFocW8PLaeIAssIKKYFUsRWva80rLaHlhESrhJee5D+CwB+qP0nObXqcuu407IPrL8/KeumzDup0z8cJP555fueO22sLszHfYTRH1Oqju0CHyYszsA+fe7+yqYyGCdCbBOBjyKAKnYI/Xd9Oers47TufZw6/tCgTX58+dlx3i5krikJZx0tXA41EBYNUQ9O2rzM4cH+nj5EFNRYBM17Rm/D6iLmOEk26493zISpBGklJs5+LVy7aWAiWb+5GoYHl0tzTRIMBNFei7w31tuPNnElss+ZPjiHBjVR1q67hr14A7+RKnPP/tTa06NHNbV710MWDu0fVTIBElMiaTGZQYBcMDaYM+Z01u1i/vqCg8kMIDxU2GM0lhUSUM1SS9hv9MwbWVwmNP75Sk1Ze8y4yYHiftvNMb71l99SP/+cM3lsyt+SGAF2uRAyJ8s/BDkau/nxy9/agXCYrGVKwvtQ4M0gtb3oU1spOaHV4B4c6Lh5uBF4NZLc5Np4tmFdElsytoTXE+VZl1lKuKUBrw+SzKKJkBEc/BOQNcVcZQEP3Zw1SFzoXL4Aq7uKqKNlSW0KKsNCpEGRW7rTxRH+0+cpgee/55qutoE70IcyzWd69ef8Gv1s+fP5F29J7Q/cLzz/m5ThGqZXfeQFc7Hdy9F+1WPfASwk2YELpiYEg0UKJeLAwh4ldorAfstp/9trnpX3YzcNlpHI8ePj5PV1p+QygjBym7wAzjRomczou3iLaJolZHGw+TKeJpqcnKvPtTc2bVpvi4UV1YyXTIke6Qoc0pNSs/K98VjzHJ0IandSbxoIbTJZnXI30nXDD8NifkPZcsnh/asHzxn4wqRUfM4yIvEB32b9tOEewlFiDDJbLEaLl1NNc7qak3GPr01qamb263uabaLlmMdn9j0ypLefE8S0Eesl4QxOfcZc5GAmhiUrHh9clJHyUm/VMrC3N+n8qaYMgVCFyG42HzWpTFDMHcjHEDAbYo0Jwn7jGbyhhGniNIOAk1ZzLnTmU8p7WZp/LA9+Kav//ip8/MnlXxi2A40KjQClA9YSUEkOLr6URTKpcTiz1GDBbYbbNBgLxFf3nxBTrQ3IWGUhL+N6/wdOynIpOe5uaaaW15Dl2xuIauXDSHroB1cgFqSM4vzqHzSwvE5+LKUrpuyWK6ckENXVhVRLPz0R0RfjFk8IqGFBwZP97eR48+/w7t2ttE8YAawV5L3bKa2T/78g1XNr0XdErlmV/75McPrl6y5Le6WMQXQSyp/Xgt1R/aTypktrFlogIdRcoyBHVMhZmixzsfwXA8p6XT+a0Djf3/lMpzRjvnle6B6mOD3vtjlqwlaqWJM/7BJKQ+89zTnutS+NCjB1el2Xz3F5fOfTvVZ128aCVvy5P56AQXJ5gzX3dGWgunOpdpOo/nlBKr+re7/nlzTUXZozHsH27aZuvuoN3oW+LpGyANwDd5b/F+SzJ1fl8hhZ68SoOxyxW6Z1dT1/de7XYXTWXcb/XbMhsDgU8bSkuqYsigjKGnvYiDsZ2ARoMBSLEoPtz2LVdHLy8sLvj+uelGqepx4oPdUFPikSf6pUz8kEmekdI7GeWeE6ZlT3Ic4vQZCfRMZSAzfc3Lf/j1Q5d/8Z/jx5qavobgx2wVFlo46CePPSyKzawAX9QYDQjKAgoFmsZe+HJdvXbqWLqEFs6rQkqtlcwIzDEACq8qPRS0LBQhZqPNbRSbIYrQO1v9QrtjXzyvPCy9ZMIvr8JIIubRM+ikd3buplfe3krHOwdEUaFWEemaXVT4s/+59573Aq59UuS/6fqr/9rR37+hsavveq/TRW2Hj5AJcPnVCxZh/oB/AcPg9FlJpYdbi+tE4hpC59+C+p7BH/7PrsbC0uy0R6+ryDmSyoPf6Row19udG7Y0tH7DTerzYhqDcFNolVoBhhmDpcdfIKWUlLD8MtT0+wWF+S+kcu8R50Ri7P6ChixpmhMq4Hx5FIJkUoJnCuM6nUug9Kc0j5HPYB0n5XndctWVv+rq7F7R6w5ewMgPbfXHSY0MuTkrV1JuXgEkrGR1sFHD7edFESo2hVcVT291ee9ztXbO/3tL/4O3ludsSnWyzzU3zXq3tfWzXoPpY6gKwj05xV6KdYosPNH1E5YHPA5WdXTb4oLcb1xVmNGa6v2xl9m2xUixr7EmkgkJwyFzRorYYdIG2TvTfwBILKV3ksxMHGaBSD0lpvn40AgQptsrv3nwd9fcc7fvyOGj3wKu0wKJAaEmBK1iw4hpZAJ8UWdJEyY2OstSY2e3gEI5jE5wq+bPpfmzSqkc52hgoqrhJuFWtzrh4xXtpyTUwORexU8G8OO3lty/A4CEP9LSStsOHKbt7x6gHmBv+bEeTBplX2l2zoO3Xnvlw3/+zx9M8yue/tt95Pz1tp8/8vi3H3nimayeQdd5YXRobAByMDfTqliwEI2OzOTjTBwIad7Q7FLglRuBRA3HFZkhn//bfd3Bqx7Y3/BaQYZlo9WoaUVims0Y0XjRqyGKQKsKECg6p8ed22sfmL+lue32/mj8ancMISe+J3Ywux1jcEuIJlecyYYsOTVAL2MDfRvnzK18cENx4aStAoYnF/Aow7zeSYVgOBVHwNngFSMAdvYesWR/Gh6ihAUlJRyMfrD7iv+i9MzJMqZMw09cfU3rT377v1959IVX/xzzR5YwblonundyHZZx2UqyZOUCU46lLVgOZzpgHKxQRfE+IwiU+ELBGxxtXef9cuuhv2RZTFusZkNdVrqpE6LcDxiaaBhQ2MFY3ByIxdL73Y7SXofjwp3tfZcPkmJJAE3kGO+OjQXu9cH7UAOIlTjcrFGAq1pVtHNpccGXrp+Vf3gKr0nqgMpbO2HhCjpyvdAoGZjMCwTmqkIxI03f8N6wPRJK2QikGWHhYWwjh5V417xGp93V+qESIPzin3/gF4/c8tWvuXYfOHxvTBVfAw0WDW7C5PagPgQv3wpkXj1SeI1GlC5Ao3UEQ7S/rpUaW7uptKCI5lRU0JzKQiorSKcMaya/rkQXQgGSILoIxphR4i9hvFDcDn3T43QMrp53DuyjwwgyNrZ3AXwuREadHn5Zd2tVaekDt19z5e+vWrtG8ve8D46v3vGRoz/87cPf+P0jj/4vRUKLXP29dHDXDnLDhTF78SJAiKG6RQGfnTBDhENaWCUhNawRZKQFopElTm9wSb194B6tWtlrMui7jTF1LxgAY0mq/QDpA/1KwfAKvLD0grD+FOjuJTo+QugKvxGEVJyTFnBfHZhFoLNj38rs/HtvXljVNhUSQsME/QGlj4pqLlyJCWVvdPc8/yWRZhPGGM/m9yY6Evr9fpFAMoljVNTi8a6/75/uPHTP/3vgy89tfOuPoElNABl6TUePYK0HaNma88iUnY8OoSygmM1JiAFcKyLcj/gGCkJ2U1Rxd3O/426dw9Ohau/u1KmVfSq1OohkF50/HMtCImN2NB4tgqloisHy51R8aY1JbyMZQIYOiMr4EGUp43sW5uV9+ZZZZakEzUdOD0uVyRenAJrKTaajI4TN4CRonfqpCphTOALIdAtDYZrE4cS5067ofOgECBP8iZ//7Pkv3v+T1s3v7vpOxO+5AKUE2RFkSrmdNlGlbklHlpUVgsEEVwnQfUOodQgEQjTQ1EwHmlooZ48BdRppVFZaSrlIyQVaLZnhf1WD9XEGEBY5BRGw67c7qa6hiTq7e6m5o5s67f0U5E0Mk0StUkVjIc+2FdUlv7z16iufvnbVudNuXk5icU3p1O/+0yff/epPfvGdV97Z8mNnKLIwOGinIzt3kAdV6rMXLUVPliLEfJAUnWAQnMLJHR4lC4Kz3xDk1JvVvjgVYa8XaVnagmmLJC7O4mKRDFqFmZHjZ0LHZFVQ5NToGK8MgiMMNFhPX/fuBbnZX7/zsnXjYRuNO0+EbUJcRe1HbRC61DEEAZhbFOM/NSNTpIZzsJ6CzSalAv2Gz84DkFbIII+BifshgNldC7wwgTYtBZo51juUOZTIWNJGgxG9IrZvKjN64Ov3bPv8977/VeytB+Aang1FgNrgDoYJQXOWrKC8olJS6WH587vDWogx4xcmOitdUCzYOAHeoiaqLIYVURxDrn0siD2DLEbOmGTXJUPus1uO0XQldzFggaCNK/Cu+L2poaBE0cdHFfBsmTOr7Gu3z501Ub3HqFPF8NB3Ck2z8K79DgcpwQM0nPkHC0rQTLSFl9xmko2CLC8IG3Us6tSq4s1ToV8K1wSV7H5HMXTME5Ay3VjlwiHkMr9PgZKNOC+73tg3whoZRetBQlcK95/UKR9KAcIU+s299x38xRN/u/PVzVtuaWxu+zRgEFZGIjFVFFqTC0Ik4EbleQY6GKanEXofwJqAfcKSAYfX6aEWfLbW95AeXEzFvcxhMuu0atFTnbUVdomFsfi9gJFniBLBG2Fmi36G0WBndnra60uqF/zPf939L3sf+cH9k3ppZ9PJP7/v7ue//cCvAi9vfOv+fq9veQi9gbsPHqIQ3HP5s6sor7QckPqF6CPPPVDhPAEIEddhKsA4kn20xTKHnR0e1gQPPSOGpskQecLqwEblklDhZmJDJOwlW8cxUg3Yn1tRWfbA1664POWg+Wg01ASjAXUINS5NTVRSNYtMALn0MWOCe2xkQZ4KTM0YD/hmZekeOjcnm3MtzsojFglH2QUTBOBhX2s7zcrLR1achEmVFgEjBnMJCRR7ZjWwt2D2maPBPTUFOa9MdUK/+8G/vXjv/T8Jv7T13Z93BsNwFStooK2VdtkHaVblPMqvrCIDshhVsMBZEWBQTPFCWaixO1gIFgg9EcdIurwkt9cJ7yKjJccRO2QGjveDlcGtEGJI5PAP2GJa98CTa+fP/tGnl9Qcmuo88M4DsI49LHT7oAj6KmdTlslIfljRUdFfnlP2ebDcqRTWMZ6vgVWcqdXtKkxLGxN3barj4esAFOvRqtCIOxTV2Zs7qLigjNTopBpKuAVZueI4JAtYFbfsxdj0KlV/gdX893Os5qkG4Mcc8odWgDBF7r7ldjYzH/rGA7/YuGXnzns6OrsviqjiNWxx+KGtUchHOtSHmM0mMhiMpIKAUIvGUuzLRVEiTHNh2jKoIBYxWx+8AWPs/+de7XiRfJ5YaziQHWIH1PyW2bOr/3DR+edu/vSGdY7TWUxny7U/vufLr/+/3z/sePz5F+/vcLkuCEXjyq6OJuoe6KLc9lYqhNuvZHYNaQByF+XUSinFgLfDiCkMM8KGRf+E1YKD0XUZPkUDDdOG9sVdjcd8yoDj6dsuveRHX75kQ6rpumOSTatS2xj+prO5mbpaGqnMOBdKgQ4WJWIGI+IiZrzMTKXq2ZrSkhfPlvcw2jgyzGntqm4bBQHcWXtgL1mLCsiIHjlqtVbURYi4KgtIKEeYP1spnvw04wM3LZiVcrB5tOfef+99r333f371see3vvubvv7BcyJQokKwyo8f2EN9/T2UjvYFJfhkAnpEhf5S3ORSaguQeNkiC3aiBChYGqizisPKMSK7MjbgpPajtS5TNPqPW9av+/5ta1ee1hyuPm+1Z8Ntn2rT+NDOGinKx5FyvwrYdWp0JhVtkhkfj61UroHCULUAG9UH/C0LSkt/ti4/3TcT68JiMfVFolG3WqnWNdc3oH13GRXoqkiLLqzcpjeGmBO7dAV4JdzJYEvBvAzLrxcXFLw6E+P5UAuQJEH/8567G/H7l7/8gx8u2nv42Of7XJ5VLn+wKuqPZoZCURQceigEzcMAS0SPn1pklyhhD8I/KxY9m7ghuMBUMNM1bFLj7eEFsyAJAYsLvuR4N5oZHSgrLHx29bKl2/752kv7/zoTb/M9vOfXP/fJXX995bXPPPLc818/2Nx8DURoWcgVoN46PwrLOqkROEnFs6qosLwSLsIMgfSgROYWWx6s3bMmJ5VUSEc0IYD5dwSpKALmg/8jJ+7FwVlPf9+ByoL8Zz5+++2/vmXp/AkbAqVCmlllpbsa+w7YYx5v5kHUMjBzLUVlsw6WI79vYTEJVAHYQV7/tsVL5//4vOzss9Z9xXOePat828HGRlT2xQocPV206623aem558EqLEKgOdk7HqsY69dIymB2hvl3C8tLp2x9DKfzD+/68oEHn33+9meee+n7ze1dlwXCgTx2Efc1N1BrVxt1HD9KhcUlVFxeAUGSLbK2OIFFkch4EjU+I45kZbmodAckSRR1V47ebsCoNJK7s/PQ3LLSpz9y9VW/uWnZwp5U3vlE5+RkZe1tsw18Am8dlmkjHUNRcfm8SjJnpLOyD7cb8su4uh1rM41CjdWF2d+pyUl/baL7TvXvhYWFjbCKOpwufzYhY/TIvr0QXmrKKiwkLVzuHHtl/DfgfbMgceVY0363uLjgN0hdnhFE7ynl90118u+X6773uz/k1TY0V7e2dF/l9gbnwd9YgOrqDATRLACPM8b0Gm1Ep1KhyVJErVH5NVp81Gq3LhYf1MVi/fi+X6NVt5lN5gM5WdktOVnWvvvu+EjX+2X+pzvO7/3hj2s3b3/37tbm1nWIfhbEoO2igwjp0tJJa0S/FWAVpUGIWAF6p0FrYb0Bghl+8eFuogiYQxAYS/zxwtLr7e6ikNMZ1gcDR6rzsjduWLns4a997NYpuydGm+Ov//R43n/93yN/96t153tgRerhwiwC3lZxWTkZYYFqtBphcUb8/mNXr1jzxU+vW3BaLrPTpXMq17+yfW/6fT+9/6E+h/sjKp2RPGDKxsw8KquqoYICWCIGCBFlCAww5F5QUfrDi9euenCV3jjtAJ7fe/Chte9s2/nN7l7bGk84muuFpsxFhQqtViAqWzOzyAimbMnOJC1ojT0kXMciviAV5gklIgrh7UVbhiCyqwZtvWgvMBhV+71Hqgvz3rxwxfI/f+XGG/amQpdUz7n/ob8sfPjpJ/4WjGoW+OF+jULIZQLHrrxaUoTUSBZhZcdM8caLF8/9wh1LFqSchpzqGEaed92/fP1Huw7VfhuodKQ0mEgHy76gpJSyS0vIkAYFl7OlowFHTVH+99avWvaH9dbMGbGGhHI31Ul8WK77zRMv67u6u6w2my3N6XQW+Hy+HOT+pKkNurjZZHKlpaUNZGVYHelWi8tiMnnTDAa/3qD13bD2nGlPmXu/0fxHv/rtBdt377v9eEvLoqBCVQHOkOMTSQaw1KA9acE8WGhwUFDNNRxASB4uRLgmIwSNFYUlXehbX7+gsmzrRees/PvKhTVHLli6cEbo+/lv/vjije/u+g+gOS2LwKltBDKzGokAPFZJ+40duuD89T//7T9/5uH3y/t44NHHF/7l0ccf8HgjF3vBkAMQ5mqdiUywpuPAd4vHwwMLq8se/uoXPvfvF5QVz0j6KdPqlR379Ft37F6zfffeLzV19S4B6nS5QqXWBFBsGMf7Z2BMFeitROIKF/uK2EjiSFqq/D1nlGHJ9KPup2l+Sck7l65b+7dVc2sOnzdnzoxo2R+779uf3L7z0I+CcVUxRC2FEKw3WMwQcsjVw1o2KlV1115w/g9++oXbJmgZMD0r5r+fenHOr//08K/sLu+FGoyBU9s5GUGLzFEVV+Irwjb0GPrrZ2+76d9vWr7MMT1PHf0usgCZSerK9xYUePSl1/I379i1qL655fzOvp6FsK1zw9FoejQSwd5TASVfgV6AUYUUL1KEEG/wqNVqR3p6ek9OTk7tnNKK7eetWrPllotWzuhmSL6ub/7sN4tfe/vt+1we5zKkkKYhCB2D39mFzLljF1188UMPfv2us77Yc+TS++Ujj9c8+Y9n70ER6yql1pDlC8C7Gie30aRvnb+g+rk7P3nH7y9ZMJdBEs7I8dtnXql6d/eeNc2tLZd29fTNQqw3G8WF6fhphKDmvukcAJGytWMMgx13aTQqFywTe3FxUe3smuqt56xe8fon15xzRlyIX/jeT27etnPPlzyh0Gww6cwQzA4kx/Tnp2XUXnr+ht//592fefqMEC7xkD+8vKnq2Rdf+uKx4/Xnh8PxAiB4I69N6UFdVOvSJfOevu36qx699fy1/TM9JlmAzDSF5fufRIFNm7eqWm29+bZBp2VgwG6KRaNaZFWpwDQQvw2rjCaTPzMjw5WRaR0sKirqv2L1qhmxNCZ6Lc+/uVF96Mjh2R6PPwMZNwqz2eycP39h+40XXnBGhNhE45vq3x/8vz+X9vX1ZQWDfp3JYHDXVFd13Xr99TNTs5DiIJ99Z1tad29vYd9Af67D6coCEzRE0XESZI+p1IoA0nm9UCRsedlZNvzsv/KclVzTcMaPZzZutBytb6gB/Uqg5ETzc3O7lsxfdOzSdavfsyy83z/6eEVLe1tByB8wWswWe3FJYfunP3LLjAuOM058+YEyBWQKyBSQKSBTQKaATAGZAjIFZArIFJApIFNApoBMAZkCMgVkCsgUkCkgU0CmgEwBmQIyBWQKyBSQKSBTQKaATAGZAjIFZArIFJApIFNApoBMAZkCMgVkCsgUkCkgU0CmgEwBmQIyBWQKyBSQKSBTQKaATAGZAjIFZArIFJApIFNApoBMAZkCMgVkCsgUkCkgU0CmgEwBmQIyBWQKyBSQKSBTQKaATAGZAjIFZArIFJApIFNApoBMAZkCMgVkCsgUkCkgU0CmgEwBmQIyBWQKyBSQKSBTQKaATAGZAjIFZArIFJApIFNApoBMAZkCMgVkCsgUkCkgU0CmgEwBmQIyBWQKyBSQKSBTQKaATAGZAjIFZArIFJApIFNApoBMAZkCMgVkCsgUkCkgU0CmgEwBmQIyBWQKyBSQKSBTQKaATAGZAjIFZArIFJApIFNApoBMAZkCMgVkCsgUkCkgU0CmQCoU+P/LvcryKmGhsgAAAABJRU5ErkJggg==;" parent="uWiy1Z3-CHDcQIck3Mmg-2" vertex="1">
          <mxGeometry x="64.62" y="60" width="52.63" height="20" as="geometry" />
        </mxCell>
        <mxCell id="_YNyTzP73_17Jnxu043o-12" value="" style="shape=image;verticalLabelPosition=bottom;labelBackgroundColor=default;verticalAlign=top;aspect=fixed;imageAspect=0;image=data:image/png,iVBORw0KGgoAAAANSUhEUgAAAM0AAABnCAYAAACjO8bhAAAAAXNSR0IB2cksfwAAAAlwSFlzAAALEwAACxMBAJqcGAAAILxJREFUeJztXQlYFUe2LlREEXcBEVCU1SVuuKBsFy6I7MimAUFFEUFERdGICq64BXdlB2XfBFmNEo1mMauZ7HnJm7wkk2Qmk1kT32QmMUm/ru5bdHV13wWEAHn1f9/5QOlbXX37/H1OnTrnNAAUFBQUFBQUFBQUFBQUFBQUFBQUFBQUFBQUFBQUFBQUFBQUFBQUFBQUFBQUFBQUFBQUFBQUFBQUFBQUFBQU3YReHwoFxYADrsCDCBncg0KOPQhQ8lAMMMiRBSr3EJXo95Kg8XEiUfJQDAjghEFkgUo9lBUDVoapZHgPCRrPQHUORCA58lBQ9Dtwynn79u1hp6rfipi+oflDPe+rHwHvK0g+Bl6klHRT+M8PXnb14+nrWz4Oyew4umB1th3giQQJRJKHEoeiX4JTzJs3bw47XvVW2MItt/9oGFD3CHiXMcCnvNdksE8FY76q4avFmxuPh29ItzA2NjYCvPVBlocSh6LfotMtO51XO27LmXu+izY3V44OqWOARxEDvIp7TQZ7X2HMV9Z/F7i7cZObf5QZOwdIHNzqUOJQ9DuQaxn9yMhII7+U4gUB+557dUJYAwOUvUcaKEN9Splp0bUdTrEXfNjzj2FlJCuGgBKHop9CQhrAu0hGK1euNA1Kbyk0DKr6nl2H9B5xWFIaBdQwfk91fJqYmDiNPfdYICYOucahoOhT4KSBygnXE9A9gm7SmPkuflOC9zRkzdvU8vvhPo9BHM8izRbLs5gZ5l/FLN5Um7tsxVpbIBBnuGpOQwC1NhS/AnTZdddEGqi4JvEbN808WnLvoMeOW4xeNwijz5JtVGAZM0TJEsetgF0nFbIEklkrscQZE1zzaN3xZ/ITErfYAN5VQ2scShyKXoE6kshtGsodg9wzjjRKpdI0u/R2dMDuprwlW1pftYio7paFMY+oYvaVPGB25rzKzF7fwIwNKmMGe8sfP8izhHFMbv/8ydRLvuwcjIFAnGGArm8oehjqdvQ1pbCQn+E2NG/cuGF5svzF4LUn7z2YEd/GGPhWMUDRzSiaopCxDKtkXv7gGwbi0U8/M3/827+YtPzXmIlhFbIum4FP6S8+O1s7IracVrLzGc/KaFZGAPnAAAVFtyCyFo6Ojvp3XnlvWtzRZruU7Fb7htuvQ1dnKBDvvJO774NTUlIMtp3pWOK67dbr1jHN/wZeV7WvRbQu8ouYIezPmGP3mGde/5L57OuHzAvvfs347HqGMVyuZo3EfsY4ooEJ3Nfx4txFblPYuY1jZRTgAwPUTaN4LIgsS35+vmFew2szww7c3ROSefe1OUm33ly0tePNkEPPv7714v1DxY0vTIfhZCBNXeEkNTV1eEbB816K1Gc/tFh1/Qe9ZeU8aXogQqbvXcJZnEUJ15lpq6qZwaqomXqylTBjQqr/E5HRUrxx/UZrwK+v1K1vKCh0giRXLPXySxFhB++1WUZf/2p8YAUzwr+CGRlQwUwIrmTs17V8E3Hw7nWWFOu8vb2huwOf2vjuu76tra3BxvQLJmuP3lwRdeRuvnVsw9vjQ2sY3uI8JnEgQeBGKQwCeOhgvdi/D2KJMz3h5rdJh2vWAn59I+emUWtDoRMkhDld/aq3Q1zLv4BnqbyCsy6PvlcpY7u26buT5a9m55bUzgT8kxuRxwAIiZlQMUeyJDJen9W0XbGj/ZNpa5p/4NJq5KJevSnuxYzbNnZ9E7t5BuDdNHVhaAoKtRARZuuRgvGRB2+udtjQ+pCzCBpdnmJGj316T45qYFxS2l5OPFzpkbh5G0pdMcQEkgauIaCSmiQlJc1ctycvesrKqx0GflW/Lmk8C5lxYbUPJi5c7QiEaBqyNpQ0FFohIkzQmnSjJw/fipmX2PLmINaK6Lxg9yhmDP3KmMjDzz2XdKI51na2swngSQKf4kaqn9AV4kjDyiRWprgmll0yDKrr9bQa8VwLGYsn69+wdo5ayM5hIhCsDR6Cpi4ahSwk+ykRme1rrFY3fGngW/5zlxWZPX6Ef+VPVtENX8RmPXs25chVJ8A/xUdjAhUUPt2hNbJ02liebxhUq8N6pIh3EVmrJpWuzVPPo4QJ2tve4Reycq5qHjAEDQmOXDRKGgpZSAizJ+dZb9t1LQ95RXyMdQbchV9xjVma0vZBbvFV+DSHRBmrEvj7BFZMWTF3SijP00aaQd7FzNiQ8l9sYut+to6t/QkXG1YmRtb8PHhZqW5z9ihizGNamay81gPs+acC3uLB+aBABiINddEoRBARJiYtd3xIxo2YaWuuf68H1zA9sm4oYoZ4lzJOyW2fhO5rOZa0J3v2okWLoCsEn+pQSaGLZua0qSJXG2kM/SuY+Ultn/nGpsdbzXZdNnWOu9fUuQrl1HkKT+t5np6esQc3uW65ds8krPbHId4a5s+eY7DX1V/Wnnju0+AVwZDMlDQUOkFEmMDYPUaBT7XGztzQ/ECPi2T14NpBye3EMzYx1/66Mfvu+fi9ee6Ad82gcKRZsqkyRxtpWJePcdzc/okydFME+5l5rEC3ajYrT7Aya/KUKXPX7MyO9Uu//fakyPrvgVeJ4NJ1CqyzKWUmhNY8TD5Svof9HEzgtALUPaPQAolL5r+nLdYi6toXQ5eXdX0NoyNxYFGYSUT9j/Zr6+9n5N5KsbFxgE936J7pSBpoadr/Rxm+OZz9zBxWZrECw8UOrNizYjd+/PjpYRv2+CmTio9Oiar/nrVOP40Pq2d4ucaYhNf/bL+24f3AnXW5qs/BzU1L1TzwsDMNBFB0QkKY7WdvKqfENP4LKK/0fvSKe9pfYWYmv8CszqhJAPwTflIXSPOJV0RyGOCty3RWYA8AqPjQxbJS/YRi7R+6znlvds32ktbftRY3P2graXmzraD27pkZ8xYvADzJYAoQTKWB5CVDzvqAumYUgCDMyh2Xx3vtbImdvLrpf3tsDaMjcYzCrjOOsbnb2HmYQ9GFNPrLyxiLqPpP5/lviQS8hYGEgYVlUPEt0VisWKj+Df+fIxDg3TA7ldhin4PHk1aGbm5SdAKRZrB3bOYI77TW1bZrr7NrmC7sw+ACc8cUhVwdjJ6adHx1pBkd3sQ4xlyCpJkMxSlBeyAAbp6ahlZ/u2Jb3i7Au1bIUkCSwOCCCSac2wd4UiACWakEkWyS6lg821muTIDi/yk6rczyxItjXbY2RU9cee1LfbiG0YUccG8EhnOXlTGQZMNYV8kqup5xT2lhJkfVMgbqsoo1kGb+6vOpQOVW6RJyhn8z9CtnVux/5hUgrEcg6SA5kPKjsDYKaUO3CxEIF1PV3+BxOGFopjNFJzqtzJ7CV8KWbn3mgb5PqZQwnNKW8ImP7kXMoGXlzOjQesY4vPYHQ78rf5uT0PRn56S6F0a5HzsXtLOydG/xg7+bRVTxmcVdJU3UmTTAWwtrp41lOm1u6nmXMJMiq75Nu3DzclxcPAwXQ4sBSQAJAskCCTBKJfB3uE6BxBhPCDoWumSUMBSy6FzLpOW9nrIk5dbf9VlCDF1ezowJqmKM/Mt/NIms/6d1bOPfhnoX3HdMuHb/yYPtHXOjLp1Sbjy3KzXjTJydnd0i9vNz7R1mLok7VJetSG15MMy75Ocup/izxBi2opExW3YYkoZbY/hsrykwCtExjYY9ZvSKembR5qaPV6S3XA7fdnlZxNqtcBycCEZASNuBMgoT9HdIFtTSCRFGXfWmpspUXUq/KQYYRBWUBwruOcWcfLnCZFXz++bRjR/4Hbj/4cKEuhtuW2pzNh5rOWc0a6WXe0iCV1z8JvcZM2bA/ZCZKpm1PCTK0z85Z49zase340Prul0TM8i3lpkScPLguHHj4Lh2q/Y1FECLpnuOWyEzzLeCmRpz/d+eO2/ejsxozQiNP/CEhYUFKipDpCAFblyi9rVk7Y9cy1p15d3ahJJogENEmqys4yOzchpsbEOfXjgn/IhT5tkK57gNiTAaBdcHctEmGJ518AxP8l6ddbdjQmj1w0Gw7dLjFJE5FzAbn77b4evruxiOn57z7BWTlY1dS9tR8mKwvIwZF1L1n4WbW18M2tN2ZPfJsnmBgYHQXUPEwYmiqceztj4IeNN2snk7/n+aSr8peQYIyFp9qDBQkaCbAl0alDgJo1CQOFZA2O+AoVnr9OzqeO8dzVVTVl3jd9ofdz/HOZ9Ze/y5V/wDgpaw4ztcLLt1wDi87lG3xuXIU8KMDKx6ZPFkw9dLU1qbIvY3p82cOROFkVF5gpx10YUwZNN2snE7XjOkrfSbEmeAQI40qJUSXAPAhTEkDgzbwjAst9fh5ORkE55wyN03ra7Qbl3zLwbs+qfHCsUURcwT62tesZ3rvhTwm5T2U6Jq/gq8H7NxIEegK8zwgEpmxvrr73rsaDsXk1EXkLDnHHwA4GsYTc3Qhe/LIz8OeBXdZa/7HlAWInleIp75zcAj9yhwPxcJdLdoFP0coiwAwN9UZG1Qqj4iD7fPkXmuOjA66275hBUVj4DnY2Y8y4hxaPkHsz1jlwMVaVy2tnyl97ikQeIJN0PLGZPI+h8Xb2l9LXRf25Etx6tmBwQEQMuqiTiDRN+VMv9Q14lb9E+OQPbrJgGBQOoar1Py9GPIWRtEHLw4DIZouX2OxZuqz5qubPhHb+WimUbWPnSLPb7JyMgIrqfsA3c3V4wKqOixhhvoPEOWlTJjgyofOafeeWvHxdvbg4ODxwNxHwPShRrU+T155h3u/rkL3wE2UdDllbNwPUmc3ojk9dR4AzrCKOej4745vKnw5iICjXJOvnZxfET9d1yps3cPCzvmmJDan9YcbSuKjE2AWc926w83HjIPr/1B73Ebbci6bMXMKL8KZnHKjXeTj1/zVQUKyP0ZvH8bv4bxzD0itmAFX7BEui+W/Pc1Wp1pEZOBuGcCvh+krdFiV+Rxo3g9NaYu4wwYEqlb3JJvJeMIVNb8kk9qzqvPPrG+4c8O6+r+PD2u7hsHTmq/cVhX+xcZ+auOwh0/Z+P1vwSlt9S5hqUsAzDBcu1TPjM2tv6XgV/FLz1u2VQy1LuU8d3z7B/2596KB7xlJVs3IfLw34lHzlHRGG5nnwb8us+CEHMwN8WbPf4ZqauY/yIQv7FAm4XrjuBkJ6N4miJ52qKF6sbUNp6uc5Mbp19Bly8GKgskD0cchUIxYaGzp5n9rPmW0+xnTZ1ibW9rYWU9fZLl1FlmFlazJ5pPnmtqPnme6STL+VBMJlk6ahJ4LPwM/KyZxdRZw0eZOgC9IVyW8gRjYxv/XQ1VZpG13/datjW7LhseUM0sTm7/aEV8JqzFwXs64+4T775KSHMmGwgJoZNVYglw8jhlbZecd2lWDFBPHDkrp0nIY/AHHyl4SFybspNhdbkxNb3PlCSKprlpm1e/g6YnC0kceJPhzcbD0jDhEYaiYQoM2s+xJ8SBEPT/KMsYfhZGtKyAoHiW6adr1il2tL8PU3h6y9pwezu+FY+iD996fsGCBWZA2gwdWd3hwONSluizrqdPA02EQeJ+qZawNi8BPtAiJo7ikhe79jnUKYtP2HbOYdFRO6A47wU88lOBImcDECsc/zs8Xpl/Hovs8dE9j7wj7BzigTQQoU7R+Xs/f68xUOSuZ93QJtGYnnkXWCvrAzRHBgdrHye/FLifjyDG0RT+73dQ97RBxEF9ylDLJUQcMnN4ahfESvU5qHBI0Sapxp0UGBY9fd3RtvMj/Kt+6dXaHmUJ80RC6w+7T1UEAWmWM9pzMQQeF+VIQxIGzR/JJGDmNl1yTof1joAkDrlmQopJWjhIBPwlvLOSTTkF1Hqd7OdcspcDaQNHqaJDJVcW/0OLpf6ctZpLgLinHW459DmCax2n8G2ZcXojSNLrkAsU4Ps5KHMYhqThng6vIIKYaxF0nJnq86aqsfDSZ9M5c+ZYrTzy3EOg1LFJRjfdtGEhDcyCuKKDQKinQT2dUfbACDWksQRC/Y4Zdh3isgQYJMA/u/jAOtXfUWb1SAk5XE75slaiQjrfghcAynCAoWyodLpf6z/BnLSZQJprJyh6V6KEcLwlh5yBkG0hPGg88i90aRznk35A3j3u164aDtK3xd00eGFQqTpD0kBojtFVwVP4x2AyVvU30/1nqsKtY659ou9T1nvWxrWQ8d3T8fzq+K2w14AxEHo6C40NFRePiS3BabSmQYQxUV3TOEz4BwsZFODXQxMBXpKguCQe3+V0kryCFbwIUAY3SSrPwj8AxYUT3Lpp6alk1i3LA16F3xJP9neAEPgQK7rbuWWS83kWvMu6USfYOe8F7udOclFD0d9ZiyPO8TNkreRK6Tj5L3LjLDkSKzsOJM4T22EVLr7WG9DEwdc3aE9HFJZ+DMEzkfGMZEgejjiT/Y5GGfqV3NVbVto70TRFITMtpuENe5fVqFkgaqwxovM6FRcI0nCKj6wlIgxekjAaIPK7nT0lVqC8l4FgmXiiKS4el52bR+4NVslOsdYpBCw+GAwWprsD9JCBSgaVmruG3EogrR0yBfO2KyXE4cfAyyF4q6os/Jy4xr0As/wAeQWKyzWi45ZkBWDjjZScz/npZNGc+HEmAndiHEVuFZAGSQbU+4I0BQfIsHRXBD29NR3D9XkGqsCDvuncaWPcM1ePW1HxKeiNcmxYouBX9sDQPggmjeJ9AgRCS0kDQ854ERtUZPyJiyzyWO7JKiUNPA+qMp3APYVF82IVb+42LyAulsOtGU+cqaFT2LkdB1LCCG6z2/kCsZKzT3thTcXP2TV7FWEZXgLiyldBzD3tuPkpcqrB9IR5ovm4nEkUE4E9RjwfsStPWpwZifOA9EXCA9La4K4aGYrUFOZUJwaE4P+Hb7CiwAP80i1corNWTVvb/Ah4XunxNY7DmoaHKUdL461YqM6HSMA/PTnSYOfkSYOUHgUQkE8uvgboMklJI14HkcSCii5eA+IERcVzeMNFvH8cUnR+fely8oB4bG6PyQTgRXiKnBzRMU6H1wDpelUgsIW3rWouYjfbM69dbNX2hQLpmlcQaLHx412z9xHfJwpaDKiyc102q7TtK+gD3QgmRxqUfc31evbfcGKVYnvbn8zCqhm9HoyqTY2q+0vMzosxEydOtAJCP2cNpDmLSGOMHYtnFgihemgJpKTBo22mEhduUcZ6IA5hk+smcg2IB2dw0lgAx92RhJVEayqhNByuOUTKvjcMiBVcLmiDE4YX0jUTB4ZI8plxQRH8eOiyib9TOWszIKBLOoQ68qgjC2dZHB0dDVNSUkaFRsWNmuUeOnqMnWLM1gOXrIoaXnLLKryhTDxc6R2Ucnm5c8xJfxu/fcETXFPDM0ve+FC5q6NrpdWaxKOImRxV95a9azT09VGvASGypZ40eH8B3J1A18i99l2yXhFIg8gwkRsPP8bxKbiHgYeycYKS/bDHgJmb5wKng4HA/cJJ1kqdYhf1p7gxXVmCuF8Q7xXxkT/cPTTWouxmAHclxQEcscUjv1sx8dE5TTsFWiLxd3MfCGs9uXeh9nsXrbupESRJOmtO3nj7o0U1t97xXJ3ZoLRbVajccfmFrORLL9e4bWuqsYmprhkZWFxrsar6jmLXnc+W7nj2i7lJN76wXd/y5eTV178cH1H31fDAqj+ZhVT8NC6gtFtvgZYV9yLGdWvzbY/lYbCMG+4doS6baFGvjTT4q9UNsGvn97c88ipllFa8NyVPGtLK4OsQnsxLT/gBjxxpaFqTuGaj8wvuobyy44oudufU9WDQTBp0HchKGbMWNUSGNGYy32u/ddG6YlFIknAECQwMNKysrDQ5crHGKmRbgf3Vmx9fOVT2u1blzpY2s8jydkXarR9ddz3PTF3XzowKa2Cf8uzCXlHCfll88iaAbaRgNaiiUHijmWfR47+XU53A3mvhTYwiPu8E4DMUumNp0M1FlkZMGhgmxs/pdHQ70J00qPsois6hYIMRu6BfyoVqu3rNrtlngNC6irci6pVd3fmFyCJeViIdx5IYB63J+HUYjApKrTA6FkUx5d6D2qfoihXRz8kvHpl+LH9sfGap+eXGt5XKrTVe89dXBG3LffOE+86bhdYx9U2uKe1fOKxt/M+ooPIfjIKqmRHBNcxQ/ypm0PJK9qnOEsG9gCfEr/kOGrWkKWGs1zT8b1RSJlywwpQeeJN1XdPg7hm6ueSaxkji+sxJhrv9mt2zBXtgy108pI1IjG1sEoSBwQQ+20Dzmsb1aUQaYV1FZmjbPLkEiK0Dfn48+olKSvj1p3rS4NYS7cuNBU6HgrSQBn+dY78gjba8M+6JWXX9ltmxK3ccbEIvPrHlzN11EQdvbXVMqDuy8fzr785OaHrXOKzqv23WNP/bJLKBGQKJ4QEtRwlvMTqtxK/8SkBdhJ3XSJbUQU813hk6dCgsgIMJo/AGdzV6hvdME1JcoEKRm5YwxCp+iiPSiAMBC9LDgHgvB4Vh+X0V19M+YsJcygNykTN4nvm75EgzGZvDJMkGLCSaQBoy2IFfozho45n/ngz5SNKgNdkY9rrTRce7nS8EgkuI3t7QL0ijLqNVPy0tbURt232L3WdbZ+Q3v3NoWVrrcZeUlhbXtDtvjg6tf8c8vOZ74xWVv+gvv8q1hx3kw64tvK/2X2KotTDFzAi/SsZt+83PE3dkBAM+gdQKdG+fBs8jQ5uFI7gUE9IaiF0zISJFkoaPXuGKhj/lDSVpN3ADVBwiFtryLtwXr4E0vIvocipTPM8jqUBqaQTSeOTsBIrLGwBJGi4LARtn0f4NQJ40vLhfyhUfz0UNcZew35GmM03m9fe/CDxe826mW0pTkf++O9/Zx11nYNM+/YAaRg/ui7gVDCxSaJGhLOEdExvfc30yA+aBQSsDXTOoSF3NCBCnwwiWabeEMNDKTHSB1ankAtuEU3opacix1ZMGkk5MFiSWwPVckehYl6fPApI0tjGLxXMt+lY1V1LZR3IJlspi/tqURZ9xeXJoTeOY5iG5ZunaiI+8wYif9FhzIHXP+jzs3EmYwvaPXDacfiXHYX3T76fGNP7LbNV1ZqhvJdfsgn8132+HJMKN4coBmHHBZW+YLYwNMTQ0gq/pQFYG3jDdcs9glMf1bDa3FoEhXhjqVVzK4RIq1S3OhbUMvlbhI0nu58Wbm/ymILlmGtE5J6ioovmwbhHMqBZqfHhxPnFAMg+383XAcWcksIlyAngwQlrG8B5XUIeTF6bMwHwz/DgYwRM6mBpLElQ9c+9zpMTD1nAtA3PlRPPi8vnkrFufBwI6LUz82VcyFiTfZPSWlfEk6S+L894Q+NZpdo0Few/MTGj/k41/5vbBQwxggiCs7YE1Qfi7abRnOXdJCr8DizLRZiWeCSBEksg0mkX7VwBp1EogjV2MuTQZk7UOcE/G9cxp7idKUYHRMs/8LyXzEvZr+I3GSR723Fwl3x07rmfeS7IPA5hJIE6yNQbmXnYax5F9mHGhZtwCkyHnPtunESVhzt7UnDEhvI6PaCl+Y8JdUxH3QDDwr2LGBFf9sjip5evIzLYbPmv2R7MLf2hhcMIgt0y3ehpdBSrDnC2wjBvfKMQtCB9JIrMGeNKI3SKcNNASOp+M0np+j7z3wUTnmRxxyL/xT3Z8px8leEoVXk4UOVVAnNUtpPJ0ZRw4R95K4hZY7g0OfeuasTIkeP8Nf9ftt16yWdPKTI5uYiyjr/8mBF6LzdpWxnr1tR/GhZR+6b2z/X3/XY2tyxPObo/YsCsECC+BgoRB+zL4DrRM5eZlHUnDKgokCswd410bufwxPBWG3ygk3T+4fyEcJxfq5WubnA4HSiJWncqYc1O1LlGtbbJPs9ZHsDjidBpBYEImDHSoU3powZaeSAHyqTQCcXQZxylrGxCn18htGPe5awYFRcsMSuvabfMb34jIyOmIST/XumZXdmPczpP1G1KP18RvP1aVsPVoxaaUI+WJKYfLkrYcKk1KPnR1MycHryRD2XyghJOkzOItSRlFKVASMwo7ZdP+gq0i2Ze/rSclYW+eRDbtz992+Hz1tkv5V2JnzZoF33YGrQosvuL6qgGhxBp/04CmHgEoQoQaKsIbi5pqWGIiLXeWKgReQkA2aBfKCcRvNSBDvXgmOJ+bZx+3gAtTu5zM5PZ4bKOdiPOTc8JTY4yx84kzpWFAYvGBOC66BsfnM6/xHDS5tBq8d554HEhUOA6/xiFz29S99qRP3xOEkwbVx5BtaeEXgpcxQ+WCT2RrldhgYgvEvZ516RHwawvejwC9XnAyEN58htwfshsN2tjFvye83Bt1IZV2o5FXBnxjD+2qGwI82CDtOYcskbRgTFpJS5YEIFLICZ50KZdHRiZ/4mPi7hz+eWk+nOZxJhHjofngllXOyvStewbEZcyo6It7yzIQQpdQwaZgYkWIuh4A0/qBkP0IUGmyXChXjjBCCyf1SqpOCcinMVIstDbBG0qQ1gMv0kMpK3gdvjjjQFyCjorGkBjLCG4dkLLj5ySVHi9EkyMcng+HW85RWsYhx0IWmLT4fZpzJkcavGkGIo60kKlrPQDIvYJfW9S5Irj5xxVYU/8x0tpoU1K5tHmh2Eva2AIv6kNpKeQrQfCGE+Rn8DQWvEwAFzIbGbcK+Dt65PLJ1L0MCyecuAJUfB3qxpkgMxb6jtQRps/SZ8jaf9xnx/1qsvZf7onV30WuFwF+k+WaOKAbhP/Ey71xJRW17wViBcWf4OSLo8hXcuBJr3h6CvpdrnOMpDcdUF9+PpIQZA1wRR9GnBsvaUfXiq53NBBbFrIjjbqOrfh3Jkdc8oHSLwgDgNja4MRRV/s/egCL3BvPyFdtaOqzpa5PAqlU2pRS05sDtDXUU9dMjyw/J5Udt1Ry5eX4q0HIc5FKj4+JWyV1vc/kHgSaxtHlnvQp1OadAemTDq/pH4hCKokmxZW7OWQyq1yPBLk+CaRCynWi1JQsK9dJk5ynOvLIlZPjxCAJImf1SKXHS9Hlrk0dqeX6SqgbR+6+9AvCIGiq/e9u3X9/FTnl6ErvYHUPGbnviizr1nY+bbVLg3T4nDbCqSOhXH9nudopdVW45Fhy8+zuONruSZ9Blzqa35JoUsCufFdyitXV86mzaLqIus9oIlx3yNiVcXWZd3fG6bfoyg37rcmv/V09zvi9OS/yPD15bb19T/oN+lqZ+5ocXcFv6sZTUFBQUFBQUFBQUFBQUFBQUFBQUFBQUFBQUFBQUFBQUFBQUFBQUFBQUFBQUFBQUFD0U/wfTm60UnDvycAAAAAASUVORK5CYII=;" parent="uWiy1Z3-CHDcQIck3Mmg-2" vertex="1">
          <mxGeometry x="73.43000000000006" y="160" width="35" height="17.59" as="geometry" />
        </mxCell>
        <mxCell id="uWiy1Z3-CHDcQIck3Mmg-13" value="" style="shape=image;verticalLabelPosition=bottom;labelBackgroundColor=default;verticalAlign=top;aspect=fixed;imageAspect=0;image=https://i.pinimg.com/originals/25/49/15/25491596c4706b4d35ff9335c012b5de.png;" parent="uWiy1Z3-CHDcQIck3Mmg-1" vertex="1">
          <mxGeometry x="890" y="680" width="106.67" height="80" as="geometry" />
        </mxCell>
        <mxCell id="uWiy1Z3-CHDcQIck3Mmg-14" value="AAS Server" style="sketch=0;aspect=fixed;pointerEvents=1;shadow=0;dashed=0;html=1;strokeColor=none;labelPosition=center;verticalLabelPosition=bottom;verticalAlign=top;align=center;fillColor=#BE0000;shape=mxgraph.mscae.enterprise.application_blank;fontStyle=1;gradientColor=none;fontSize=10;" parent="uWiy1Z3-CHDcQIck3Mmg-1" vertex="1">
          <mxGeometry x="744.07" y="710" width="50" height="43" as="geometry" />
        </mxCell>
        <mxCell id="uWiy1Z3-CHDcQIck3Mmg-15" value="IoT Agent (optional)" style="sketch=0;aspect=fixed;pointerEvents=1;shadow=0;dashed=0;html=1;strokeColor=none;labelPosition=center;verticalLabelPosition=bottom;verticalAlign=top;align=center;fillColor=#BE0000;shape=mxgraph.mscae.enterprise.application_blank;fontStyle=1;gradientColor=none;fontSize=10;" parent="uWiy1Z3-CHDcQIck3Mmg-1" vertex="1">
          <mxGeometry x="584" y="710" width="50" height="43" as="geometry" />
        </mxCell>
        <mxCell id="uWiy1Z3-CHDcQIck3Mmg-16" value="Simulation&lt;br style=&quot;font-size: 10px;&quot;&gt;Services" style="sketch=0;aspect=fixed;pointerEvents=1;shadow=0;dashed=0;html=1;strokeColor=none;labelPosition=center;verticalLabelPosition=bottom;verticalAlign=top;align=center;fillColor=#BE0000;shape=mxgraph.mscae.enterprise.application_blank;fontStyle=1;gradientColor=none;fontSize=10;" parent="uWiy1Z3-CHDcQIck3Mmg-1" vertex="1">
          <mxGeometry x="542.93" y="262.07" width="58.14" height="50" as="geometry" />
        </mxCell>
        <mxCell id="uWiy1Z3-CHDcQIck3Mmg-17" value="Process Control&lt;br style=&quot;font-size: 10px;&quot;&gt;Services" style="sketch=0;aspect=fixed;pointerEvents=1;shadow=0;dashed=0;html=1;strokeColor=none;labelPosition=center;verticalLabelPosition=bottom;verticalAlign=top;align=center;fillColor=#BE0000;shape=mxgraph.mscae.enterprise.application_blank;fontStyle=1;fontSize=10;" parent="uWiy1Z3-CHDcQIck3Mmg-1" vertex="1">
          <mxGeometry x="651.0699999999999" y="262.07" width="58.14" height="50" as="geometry" />
        </mxCell>
        <mxCell id="uWiy1Z3-CHDcQIck3Mmg-18" value="Digital Thread" style="sketch=0;aspect=fixed;pointerEvents=1;shadow=0;dashed=0;html=1;strokeColor=none;labelPosition=center;verticalLabelPosition=bottom;verticalAlign=top;align=center;fillColor=#BE0000;shape=mxgraph.mscae.enterprise.application_blank;fontStyle=1;fontSize=10;" parent="uWiy1Z3-CHDcQIck3Mmg-1" vertex="1">
          <mxGeometry x="757.0699999999998" y="262.07" width="58.14" height="50" as="geometry" />
        </mxCell>
        <mxCell id="uWiy1Z3-CHDcQIck3Mmg-19" value="Digital Agorà" style="sketch=0;aspect=fixed;pointerEvents=1;shadow=0;dashed=0;html=1;strokeColor=none;labelPosition=center;verticalLabelPosition=bottom;verticalAlign=top;align=center;fillColor=#BE0000;shape=mxgraph.mscae.enterprise.application_blank;fontStyle=1;gradientColor=none;fontSize=10;" parent="uWiy1Z3-CHDcQIck3Mmg-1" vertex="1">
          <mxGeometry x="959.9999999999998" y="430" width="58.14" height="50" as="geometry" />
        </mxCell>
        <mxCell id="uWiy1Z3-CHDcQIck3Mmg-20" value="" style="endArrow=classic;html=1;rounded=0;" parent="uWiy1Z3-CHDcQIck3Mmg-1" edge="1">
          <mxGeometry width="50" height="50" relative="1" as="geometry">
            <mxPoint x="910" y="731.16" as="sourcePoint" />
            <mxPoint x="820" y="731.16" as="targetPoint" />
          </mxGeometry>
        </mxCell>
        <mxCell id="uWiy1Z3-CHDcQIck3Mmg-21" value="" style="endArrow=classic;html=1;rounded=0;dashed=1;" parent="uWiy1Z3-CHDcQIck3Mmg-1" edge="1">
          <mxGeometry width="50" height="50" relative="1" as="geometry">
            <mxPoint x="735" y="731.16" as="sourcePoint" />
            <mxPoint x="645" y="731.16" as="targetPoint" />
          </mxGeometry>
        </mxCell>
        <mxCell id="uWiy1Z3-CHDcQIck3Mmg-22" value="" style="endArrow=classic;html=1;rounded=0;dashed=1;" parent="uWiy1Z3-CHDcQIck3Mmg-1" edge="1">
          <mxGeometry width="50" height="50" relative="1" as="geometry">
            <mxPoint x="610" y="704" as="sourcePoint" />
            <mxPoint x="610" y="644" as="targetPoint" />
          </mxGeometry>
        </mxCell>
        <mxCell id="uWiy1Z3-CHDcQIck3Mmg-23" value="" style="endArrow=classic;html=1;rounded=0;" parent="uWiy1Z3-CHDcQIck3Mmg-1" edge="1">
          <mxGeometry width="50" height="50" relative="1" as="geometry">
            <mxPoint x="740" y="710" as="sourcePoint" />
            <mxPoint x="640" y="630" as="targetPoint" />
          </mxGeometry>
        </mxCell>
        <mxCell id="uWiy1Z3-CHDcQIck3Mmg-24" value="" style="endArrow=classic;html=1;rounded=0;" parent="uWiy1Z3-CHDcQIck3Mmg-1" edge="1">
          <mxGeometry width="50" height="50" relative="1" as="geometry">
            <mxPoint x="640" y="590" as="sourcePoint" />
            <mxPoint x="730" y="600" as="targetPoint" />
          </mxGeometry>
        </mxCell>
        <mxCell id="uWiy1Z3-CHDcQIck3Mmg-25" value="&lt;p style=&quot;margin-top: 0pt; margin-bottom: 0pt; margin-left: 0in; direction: ltr; unicode-bidi: embed; font-size: 6px;&quot;&gt;&lt;b style=&quot;font-size: 6px;&quot;&gt;AAS&amp;nbsp;&lt;span style=&quot;border-color: var(--border-color); background-color: initial; font-size: 6px;&quot;&gt;(&lt;/span&gt;&lt;span style=&quot;border-color: var(--border-color); background-color: initial; font-size: 6px;&quot;&gt;json&lt;/span&gt;&lt;span style=&quot;border-color: var(--border-color); background-color: initial; font-size: 6px;&quot;&gt;)&lt;/span&gt;&lt;span style=&quot;font-size: 6px;&quot;&gt;&lt;br style=&quot;font-size: 6px;&quot;&gt;&lt;/span&gt;&lt;/b&gt;&lt;/p&gt;&lt;p style=&quot;margin-top: 0pt; margin-bottom: 0pt; margin-left: 0in; direction: ltr; unicode-bidi: embed; font-size: 6px;&quot;&gt;&lt;i style=&quot;font-size: 6px;&quot;&gt;&lt;span style=&quot;font-size: 6px;&quot;&gt;MQTT&lt;/span&gt;&lt;span style=&quot;font-size: 6px;&quot;&gt;, OPC UA, HTTP&lt;/span&gt;&lt;/i&gt;&lt;/p&gt;" style="text;html=1;strokeColor=none;fillColor=none;align=center;verticalAlign=middle;whiteSpace=wrap;rounded=0;fontFamily=Helvetica;fontSize=6;" parent="uWiy1Z3-CHDcQIck3Mmg-1" vertex="1">
          <mxGeometry x="644" y="700" width="96" height="40" as="geometry" />
        </mxCell>
        <mxCell id="uWiy1Z3-CHDcQIck3Mmg-26" value="&lt;p style=&quot;margin-top: 0pt; margin-bottom: 0pt; margin-left: 0in; direction: ltr; unicode-bidi: embed; font-size: 6px;&quot;&gt;&lt;b style=&quot;font-size: 6px;&quot;&gt;NGSI&lt;span style=&quot;font-size: 6px;&quot;&gt;&lt;br style=&quot;font-size: 6px;&quot;&gt;&lt;/span&gt;&lt;/b&gt;&lt;/p&gt;&lt;p style=&quot;margin-top: 0pt; margin-bottom: 0pt; margin-left: 0in; direction: ltr; unicode-bidi: embed; font-size: 6px;&quot;&gt;&lt;i style=&quot;font-size: 6px;&quot;&gt;&lt;span style=&quot;font-size: 6px;&quot;&gt;MQTT&lt;/span&gt;&lt;span style=&quot;font-size: 6px;&quot;&gt;, HTTP&lt;/span&gt;&lt;/i&gt;&lt;/p&gt;" style="text;html=1;strokeColor=none;fillColor=none;align=center;verticalAlign=middle;whiteSpace=wrap;rounded=0;fontFamily=Helvetica;fontSize=6;" parent="uWiy1Z3-CHDcQIck3Mmg-1" vertex="1">
          <mxGeometry x="560" y="660" width="51.93" height="40" as="geometry" />
        </mxCell>
        <mxCell id="uWiy1Z3-CHDcQIck3Mmg-27" value="&lt;p style=&quot;margin-top: 0pt; margin-bottom: 0pt; margin-left: 0in; direction: ltr; unicode-bidi: embed; font-size: 6px;&quot;&gt;&lt;b style=&quot;font-size: 6px;&quot;&gt;AAS (json, xml)&lt;span style=&quot;font-size: 6px;&quot;&gt;&lt;br style=&quot;font-size: 6px;&quot;&gt;&lt;/span&gt;&lt;/b&gt;&lt;/p&gt;&lt;p style=&quot;margin-top: 0pt; margin-bottom: 0pt; margin-left: 0in; direction: ltr; unicode-bidi: embed; font-size: 6px;&quot;&gt;&lt;i style=&quot;font-size: 6px;&quot;&gt;&lt;span style=&quot;font-size: 6px;&quot;&gt;MQTT&lt;/span&gt;&lt;span style=&quot;font-size: 6px;&quot;&gt;, HTTP&lt;/span&gt;&lt;/i&gt;&lt;/p&gt;" style="text;html=1;strokeColor=none;fillColor=none;align=center;verticalAlign=middle;whiteSpace=wrap;rounded=0;fontFamily=Helvetica;fontSize=6;" parent="uWiy1Z3-CHDcQIck3Mmg-1" vertex="1">
          <mxGeometry x="710" y="660" width="51.93" height="40" as="geometry" />
        </mxCell>
        <mxCell id="uWiy1Z3-CHDcQIck3Mmg-28" value="" style="endArrow=classic;html=1;rounded=0;entryX=0.443;entryY=-0.009;entryDx=0;entryDy=0;entryPerimeter=0;" parent="uWiy1Z3-CHDcQIck3Mmg-1" edge="1">
          <mxGeometry width="50" height="50" relative="1" as="geometry">
            <mxPoint x="680.07" y="382.07" as="sourcePoint" />
            <mxPoint x="680.79398" y="429.99999999999994" as="targetPoint" />
          </mxGeometry>
        </mxCell>
        <mxCell id="uWiy1Z3-CHDcQIck3Mmg-29" value="" style="endArrow=none;html=1;rounded=0;" parent="uWiy1Z3-CHDcQIck3Mmg-1" edge="1">
          <mxGeometry width="50" height="50" relative="1" as="geometry">
            <mxPoint x="577.07" y="382.07" as="sourcePoint" />
            <mxPoint x="787.07" y="382.07" as="targetPoint" />
          </mxGeometry>
        </mxCell>
        <mxCell id="uWiy1Z3-CHDcQIck3Mmg-30" value="" style="endArrow=none;html=1;rounded=0;" parent="uWiy1Z3-CHDcQIck3Mmg-1" edge="1">
          <mxGeometry width="50" height="50" relative="1" as="geometry">
            <mxPoint x="577.07" y="382.07" as="sourcePoint" />
            <mxPoint x="577.07" y="352.07" as="targetPoint" />
          </mxGeometry>
        </mxCell>
        <mxCell id="uWiy1Z3-CHDcQIck3Mmg-31" value="" style="endArrow=none;html=1;rounded=0;" parent="uWiy1Z3-CHDcQIck3Mmg-1" edge="1">
          <mxGeometry width="50" height="50" relative="1" as="geometry">
            <mxPoint x="787.07" y="382.07" as="sourcePoint" />
            <mxPoint x="787.07" y="352.07" as="targetPoint" />
          </mxGeometry>
        </mxCell>
        <mxCell id="uWiy1Z3-CHDcQIck3Mmg-32" value="" style="endArrow=none;html=1;rounded=0;" parent="uWiy1Z3-CHDcQIck3Mmg-1" edge="1">
          <mxGeometry width="50" height="50" relative="1" as="geometry">
            <mxPoint x="679.9000000000001" y="382.07" as="sourcePoint" />
            <mxPoint x="679.9000000000001" y="352.07" as="targetPoint" />
          </mxGeometry>
        </mxCell>
        <mxCell id="uWiy1Z3-CHDcQIck3Mmg-33" value="" style="endArrow=classic;html=1;rounded=0;" parent="uWiy1Z3-CHDcQIck3Mmg-1" edge="1">
          <mxGeometry width="50" height="50" relative="1" as="geometry">
            <mxPoint x="950.96" y="469.99999999999994" as="sourcePoint" />
            <mxPoint x="840" y="520" as="targetPoint" />
          </mxGeometry>
        </mxCell>
        <mxCell id="uWiy1Z3-CHDcQIck3Mmg-34" value="&lt;p style=&quot;margin-top: 0pt; margin-bottom: 0pt; margin-left: 0in; direction: ltr; unicode-bidi: embed; font-size: 7px;&quot;&gt;&lt;b style=&quot;font-size: 7px;&quot;&gt;Data In Motion&lt;span style=&quot;font-size: 7px;&quot;&gt;&lt;br style=&quot;font-size: 7px;&quot;&gt;&lt;/span&gt;&lt;/b&gt;&lt;/p&gt;&lt;p style=&quot;margin-top: 0pt; margin-bottom: 0pt; margin-left: 0in; direction: ltr; unicode-bidi: embed; font-size: 7px;&quot;&gt;&lt;i style=&quot;font-size: 7px;&quot;&gt;&lt;span style=&quot;font-size: 7px;&quot;&gt;MQTT&lt;/span&gt;&lt;span style=&quot;font-size: 7px;&quot;&gt;,&amp;nbsp;&lt;/span&gt;&lt;/i&gt;&lt;i style=&quot;background-color: initial;&quot;&gt;HTTP subscription&lt;/i&gt;&lt;/p&gt;" style="text;html=1;strokeColor=none;fillColor=none;align=center;verticalAlign=middle;whiteSpace=wrap;rounded=0;fontFamily=Helvetica;fontSize=7;" parent="uWiy1Z3-CHDcQIck3Mmg-1" vertex="1">
          <mxGeometry x="580" y="380" width="94.93" height="40" as="geometry" />
        </mxCell>
        <mxCell id="uWiy1Z3-CHDcQIck3Mmg-35" value="" style="shape=image;verticalLabelPosition=bottom;labelBackgroundColor=default;verticalAlign=top;aspect=fixed;imageAspect=0;image=https://www.fiware.org/wp-content/uploads/2018/05/FW_VERT_noclaim_RGB-forms.png;" parent="uWiy1Z3-CHDcQIck3Mmg-1" vertex="1">
          <mxGeometry x="594.4799999999999" y="722.5" width="29.04" height="24" as="geometry" />
        </mxCell>
        <mxCell id="uWiy1Z3-CHDcQIck3Mmg-36" value="" style="shape=image;verticalLabelPosition=bottom;labelBackgroundColor=default;verticalAlign=top;aspect=fixed;imageAspect=0;image=data:image/png,iVBORw0KGgoAAAANSUhEUgAAAMgAAADICAIAAAAiOjnJAAAWX0lEQVR4nOydeVwT1/r/JwlkD0FWkR1EAXcQFRREURAV3PeqVavX2ltr672trdraRfurt1rbW7u4Va2ttlbbolWrFde6476jAooIArIkgbAk+b0w98UXIXNmJpmTGfB5v/yHZGY8mfnMWZ7zLA4mk4kAALYRct0AoGUCwgKwAMICsADCArAAwgKwAMICsADCArAAwgKwAMICsADCArAAwgKwAMICsADCArAAwgKwAMICsADCArAAwgKw4MB1A+xEdY3pyh29o6Ogc1sp1215LnguhPXWlwWrtj6prjERBOHhIvp4jsf01Fb0Tz9/s/KjDUWHMnSlGqOni2hIH9WK1zydVSKcTW72CFq8z/uERbnb9pd7uzsM6a3U6U27jmnKdcYv5nu+Os6Vzukb0kpe/TS/Qv/MXVIrhGkrfeO6KbC1utnTwoWVX1zrlXw7PFCcsTlIKqmbUGbnVUdMvldda8pJC3FVU3TYPx8oG7fwocWv5FLBze1tfT0d8TS82dPCJ+8/7CsjCGLKYGezqgiCCGgj7hep0FWa9p3QUp6+bGMR2VcVetOqrcWsNrZF0cKFdShDRxBE7y6yhh/26lT357kblehzC4prLmVWIQ748xS1NJ9bWriwtBXGuimR8pmJtvnPRtOmpuQ+rkUfcDO7mo02tkxauLDMmNeDTGntSjEDCwuUWNuilk8LF5b52Wc/qmn44e2cugEuyFuMPtfbwzE0AHVMn2dHWKAhLVxYY/qrCILYkV7e8MN9J+vmRv27yylPf2MiyiQxfxItg8XzSQsXVv8opVop/P2oZuPu0qpqY0m54e3VBdeyqqPCpVEdqIU1ZbD61bEuFr/6dkHrtr4wFJLSwu1YBEEcOK2duexRToPRMKazbMPiNu396crij+Oab3aWpJ/TVehNziphSqzqtfEukaEwDqJo+cIiCEKjM6xPK917UquSC4f2UU0Z7Cxs4T019zwXwgLsD7y5ABZAWAAWQFgAFkBYABZAWAAWQFgAFkBYABZAWAAWmkcwRVZe9Y70cm2lydfTYVQ/J/sHMhSW1O46pr1fUBPqLx7cW+mkYNaABwU1Z65VEgQR21Xu4WLNPa+pNd3KqQoLkIqaSQwH3y3vGp3h9VUF638vrf9EJhG8Nt7lg394OtrlpdDoDHOW52/ZW1b/iZNCOHecy4KpbgoZdX+v0Rle/iTf7CFt5sWh6i//7UXnXDPb9pd9u7Pk8PkK859x3eQLp7kl9lIy/yl2hdfC0ugMPaZlWXTU7N9dnrbCj+bjuZGln/xeXv2f5zYH0WzAo6Ka+Nk5t+9baEBKH2XaSj/KK/SannX6amVyjHLuOBeCIJZvLjqUUTE9Rb1+sTedBsxcmreuwUtVz3svuS2Z5UHvR3ADr+dYH6wrJHP/TT9XsWWvhTtukQq9KeOmvv4f/Qa8v7bQoqoIgth1XNvIzaspB05rT1+t7NpOsmeV36Bo5aBoZfrXAeGB4u92l9XUUr/P634rsaiquoatKzp2QUfvR3ADr4W1aU8Z6ts/UN82JDJMZjoTbjoTHhnKIAzaaCJ+/BMlnXW/l6CvcOC0liCIcQOcGn44bqCTydTY99Ai//35CeLbT7fwOkaI18IqLDEgvj15hSLMxkYu3a7UPI3FIOPsdYrOz9w79u7yjEehv5eYIIgrd1HxPwRBlOsMl++gjkk/Bz1W88SIEhVhXqmhDyjTGp+Gtj5zk72exmg8fFyDPpfyAG0lfyfHfBeWmxq1tu4Rjje9R6e2UqlEgDggiqoBrVR1t1dX+YxCHxbWKcaHKoS6nZ8Uvez19+J1EDavhTXqaSgEGROT1Fj/d7GjYERfVAPGJjihr9DpaWabs9efGbLzi2sJggjzp4gREomIgT1QuSGG9Oa1xYHXwvpgtkc7P8sPIDRAPGMYg4wx1rF4hrtSbvkWRbSXvphC0YCBPeuUsf3gM/P07QfLRUJiaCxKsmbe/4eHA0mXrZQL/z2Z1zFCvBaWRyuHc5sCxw9s3DG8MqbVhe+DyB45i4QFSi7/GNQ0UGzKEHX61/5iR9RASRBEcowqrpv89DV9wpzsXw+V/3qovM/MrAu3qmYOd24UnG2R7mGytBW+Ph6NR8T2/uJzmwIDvCj6PG7htYG0nlNXK/adrFsESRwFExKdAtpYeU+7T7mXcVNvOhPO9MT9p7QnrlTW1JocHQSj+qk60c7eVqoxjHzrwaFzFfWfJPVS/PL/fOm/FfnFtau3P9l7Unvxtr57mGxQL8X8Sa4qhntK9qd5CIstrBaWjRzO0N3IriIIomuINLozdTxjC6B5bEKzRWSo1A4DaFPiIxXxkc9Xlrbnq8cC7AavJ+9A8wWEBWABhAVgAYQFYAGEBWABhAVgAYQFYMGuBtIb2VWfbik+nKG795DC2QhgEYGAiAqXTkxSz0htZTf7sJ0MpEYjsWxj4UcbiqqqwR7LGX6tHdcv8hrQwx7+NnYS1uJvHn+0gbTKA2A3ZBLBhS1B9NNkWo09Osb1aSWgKp5QWWVKfDXnTi720gfYhfXbkfI5n+Tj/l8A+tzPrx00Nyf7EV5t4R0Kdx3TpM5/gO/6gNW08xOf2RhIx9/QOjD2WDeyqqZ/mIfv+oAt3L5fPXje/UaBHiyCS1i3cqqiZ2QVlaICAwFuOXG5cvzCXEwXxyKs4rLakW8+MEfVAXxm93HtkrWPcVyZfWFpdIYR/35wPQtKrjUP3l9btGQN+9piefJuIohuk+6i60cCPOTz+Z5z6RXJpgnLPdbsZXmgqubIgi8fHz3PZjIINnusNz7L/2wrKkEKwGfUCuHFH4KsDq1rBGs91qqtxaCqZk2Zzthu9N2rdxnkD0PAjrDW/17y+mcFrFwK4JCaWlPKGw9u5bAwmWFhKLzzoDps7J1asFi1FIJ9HG9uDyFLG0ETFoQVOeXeeSb5F2ni4+HQKLOURYrLDMVlWEQtEQv8W9NKFUSWTtIW5FJBQpQiprM8PFDi7e5gLr4vlwqKSg3mvFyX71RduaM/eqGCUfJLmqyc5/H6RDdbrmCrsPb8rRnyOvu7gS5Owvx9oXTyIv92uHzEm1jMx+MGOG1b5kPnyIQ52ekNsjPYSP/u8tmjXAZFK1X0nPIyH1Rt/bN89S9PHj9h7QVr4+bwcE87W65g6xzr1FUs+Rr7d1fQzLY9PN7JWYVl/yABmZ6qIUksJcd2EBHrF3kd/CpgTIITTVURBBHiK3n3Jfc7O9oO7cOaB19eUW12nk3dsK2PpOBpGjHWSY5hcI9640mzQb8No6kysNGhnZ/46rbg6alWJv1SKUS7Vvp9/VZr21tixsYJBk+DKRJ7MhDWYAy57Xp1lPl40M3FGOQt9qM3GyPDWSX8a7W/7Y6ds0e5LJjKi4RsfBRWhyAxZYrOhgyLo86Ox5QZqc6Mjp+QZH2nJZcK0r8K8GXykxEsmu4e7MN9elI+CmvsAGYPydvDsU8XGYsNUMmFLyQzS3D6z9EuVv93b0527daetUS9Cplw+8e01hxY4aOwUuMYv/0DmQydlPTsIJVKmN0ZH0/HmE5WinvmcJaTqXZrL+vbjeP0brwTlqta1LWd5dcXkfo8PoLN+5gUTSrT61mkVunYrta0IaazrI07auTSVRp3pJdP/zCvx4v3Ev+Z887qgswH1JZx+ktaTPBOWIjJzf7T2jsk9zQuQuHnyVrw7fhE0nFw8TekrkvD462Z6iVEUShg9FsPRi/I/W5X6dnr+gNndB9vKu466d7+p8VUEDRNyGtneCesWSNIx4Wz1yoRZrMXBjObbpPRIUhCth7MLajZeUij0Vleh/fqJPdlLm702vPircp9pxp7s1ToTWPfprAJhwVijxxEwy9hdQqWBPuQum2cuFKZcYN0+2J6CjvCGkHe8Zy/VSdrc0lLi0xmLm6/1igtlpK4d5dpjTfIB+WnWxccZ5flV3LbfpGkHXhVtfFSZpWEPLV6sI/Yv7VDTr6tBtuYzqRz8BOX6yR1+lplAkmU+vQU52XfMQvNdXRAJYvv3UXuqhZZtFX+dKCMLd8pHPBLWIhZ867j2qd9hl5fZSRbsqXGqf77M0WpNzStVML4CNJJj7l4iVleFgn2Eft6OjwoYCDu3Meogx0dBHs/9/vX5wVHLzTei3x/Ha+Dy3k0FLqqRYm9SIehP45rCIKoNRBNb3E9I/vZurUyKVktI3epuHi7biA+fgm13zyuSR0NNI8KKRLvRIXLjnwbcP2n4Pdmusd0lilp1/zlFh61ctxAJ4QPUH1xwCPkwoqPVLi3ssmNaBa5SenaXf2TcqN5fkO2OCUIYhB5p2uRk/R28cMCJUtmuv+9LrDsUOjO5T4zhzu7IkujcQ6PhDVzGOnMN6+w5tq9/z3LtKMaxEWYdhgNae0qQtQyOdGg7qa5/opF+kYoXZwY3NW/zuhKNQy2e4VCYkS805p32hQdaJ+xOXDpy+7tqQqJcQJfhNXGzaFre9JZc8Ph7+rdqkdFpMPHFBuMDqP6o0S57+T/mY5+IS+86yBitoNeoTd9vcPKWIGIUNk709xvbm976rvAl4Y5CyhqRtkVvghrWBzqYTQqU4uYZkWFy6y2lA5G+sn83WBqdeR8RWUVaZw3YglikWUbixFjKx16dpCtXdjmzs62HYM5Nl/VwxdhDemDMlsfPPuMsI5fRE2fU6xydnBWCfuRl7u5lKkveNY/8xB5SWa0QJuirTAmvMJCXqEgb/GpDYHTUvDWB6UJL4QllwoSyZ0wNTpDo5yl6DLj1pUeHRGvQqwHm0r5b/K1oYeLw6BoZlt19/Nre0zNQr8wdFDIhGsXeqciu3/7wAthJUQpEHbCI+cb3+5LmXpE/p2EKKWQ+c9CdzM/HShr0gbU4GVFWeHCUkPsrOxpHzwsLLHJxisSEj9+6BMawPGMnhfCSuyJer/3nGi8DKw1NK6H2xCxoyCZ4SzH00U0OoFUCo+Kao5dbNxH/nVGV11DGocyebAzYpMAwcbdZR5Jt1Pn399+sNzqiDqFTLhynqeVJ7MEL4Q1vC9qOfbXGQuzmd3HUUYHps7KaPd2iyNUVY3p2AVUsoOEKOv9C3Yd0459O9dnyK15K/MpHRkskhyj8nLjcluF+y2dqHAp2hH59o4QptdMjVO9spxB4lO0c/OYAWrTAMZDW3KMcs8Jm9JsFDwxfL7tyefbnrRSCftHKVLjVPERCvrO9cnRig27Go/gdoP7Hot1/0mzL0psVwb+nEzN5XRAd8OMKNEYd6Rrpi7J80/NDBqeufY3WvuhPTty6ZLFvbBG9mM/FIJRSFavjowdkeng4+kY4st+UENWXs2sZY/ajsw0b1wisGIFwyIcC6tvhNxVjWU4npCopmmJxhHk878r96W48uIZbqYz4Yh/X/zLcpzg3dyaOZ88Ql/cxog0G+FYWEyXb/Rxb+WQQM89dwzz+RNNKEfY+g1QMiLak1rS0cY8giD0VVxWl+FYWCPwjINmEEbXejoEiRE+qzbSN0Lp6YLyQcgrojBZ9e6iIBtPI0IpIsby8QSp04RLYYX4Orbzw7i3lRpLrVqrQ9rp4CAipiMDX09dqTRSpZb+6i0vJ0Xjx6SUCz+dS2GpKinnMrMUl8IaiLkMVfsASYgvRW80jmFwLFNGUE2zjl2kMEkM6KHMSQt5Z5pbj3Cpm1rUPUz6yphWt7YH9+tOsWt0FGlmww2XdqwhyOwolzP1Ow+jrKBmlsx0R3w7Y5jzgi9JA7Z6dpB6I4Nk1vxaQjlatfMTIzZwojrI0c7KOw+V9yV3hjbjrBItfdlj6cse6MMa8qSs9nCTrTB7wpmwJI4CdPjyNztLvt5BbbBJjlYgDDYvDFIjhDW4N0V38tqKfD1VgcUAL0f0zmBKrOqrX0h/yIZdZR/N9lApWHYH3bynrEL/XE7eJyQ5oQNU0J6i9WzdT7ppaE7rgMieNRC5R3n0go5SVQRBZD+qQXu8oL0ttBXGpQwDeygp1xmYBguxDmfCmoYMAzx/s/JhIa1FzQ5yZ04zZFP41q6i6E4oe8RBS3uUFmnoXNqUxF4q9Npw+ffFP+xlbe+lpNwQMyO7kOsqRtwIy1UtiuuG6i3Syd3oGpH7uPZmNsoaNJkkbwylkenKHbq5PRFOf+a1YX/kRNtkIl5472FTzxwr0FYYpyx5SGkeswPcCIvSFw8R8dyUS5mogwf0VLZ2tdBhUBrc6U9+Ea7SZqYMofbEH7/w4ZtfFNhS5+3qXX3S3Jzdx63xhmAdboRFmQErPYPBUnn3MYrZWNMoCWeVEJ04dN8JTYmG7jPOLzagc6MPilbSSevwny3FAcMyV/5YzChup+4dyNBNXJTbacI9RDCtneFmVfj35cqz5H1SudbAKAHwwXMVS9YWIg5oGm2sVoo++b4YccphJsomCOKNVQVR4Sh/ChcnEZ0I6aJSw/xVBf9aVTAhyWnsAHXPjrLWrpafkdFInLhccfG2ftW24ru5FFGv9sfWdNz/WJa35rdS9toDNMZZJQz2FkvEAj9PR4lY8KTckFdYq6824Z5IndsUGBlmfZ5E7h39ADSlGqO5RMAJgi/DHB2498cCWiQgLAALICwACyAsAAsgLAALICwACyAsAAsgLAALICwACyAsAAsgLAALICwAC3zchI7tKp86VB3sLXZW8TrjNOfoq4x5RbV/HNdu2MU7BxN+CcvX0+E/cz3HDeRFFs3mwsh+TvNfcJ39cV7T7HAcwqOhMMRXfGxNAKjKCsIDJQe+9GdaFRYrfBGWWik88q2/vxcfc+E3CyRi4ffve49JwJgLgxG8EJZcKkhb4evlxn2J7ObOpiXeSb04rq1qhhfC2rzEGx0NBtBEJhHuXO6bEgvpuAli47tt0LVGAEbIpcK0FX5DkXkx7ADHwnrvJbepQ9mpjAo0ZNtSH0ZZWFmHS2HFdpUtmcUggwpAH4VM+Mdnfui6wFjhUlifvW45wSbACiqF6NflvlyluOVMWMkxSlvC1gA6RITKBkRxsyriTFhMS2QB1oHOR4IPzoTFn8p6LRsbaxlbDffmBgArOGoj0AGEBWABhAVgAYQFYAGEBWABhAVgAYQFYAGEBWABhAVgAYTVwmmum9BqpZVXoFn+FLCRoDZWOnw3rWXHCFuFFd3ZmorWcqmAsuQVwApdQqRWdFpuzqIQ20pJ2iqsxJ5KLzfG3mSjwRfZXkjEwnnjXZieNTHJ1gdka553giD+OqMdPO9+De06sS5q0dWtQRCTYzdKNYYuk+7ez6f7hPw8HS5sCXKxrQg8C1O7AT2U785AVaNsiFIuPLjaH1RlT5xVoj+/8FfKaT1rlVyYtsLPRlWxtipcNMP9hw+9KcfEnh1kx9YEdG1HUSUbYJ3QAEn6V/7RnShcdlNiVec2B3Zh4wGxMBTWYzIRP+wrPXhWl5XXuLRLRHtpapwqPhIm7Bxz6mrF1j/Lm9ZL6x4me3GoumMwa+88m8ICgHrAQApgAYQFYAGEBWABhAVgAYQFYAGEBWABhAVgAYQFYAGEBWABhAVgAYQFYAGEBWABhAVgAYQFYAGEBWABhAVgAYQFYAGEBWABhAVgAYQFYAGEBWABhAVgAYQFYAGEBWABhAVgAYQFYAGEBWABhAVgAYQFYAGEBWABhAVgAYQFYAGEBWABhAVgAYQFYAGEBWABhAVg4f8HAAD//2oYBb/zppejAAAAAElFTkSuQmCC;" parent="uWiy1Z3-CHDcQIck3Mmg-1" vertex="1">
          <mxGeometry x="755.57" y="722.5" width="27" height="27" as="geometry" />
        </mxCell>
        <mxCell id="uWiy1Z3-CHDcQIck3Mmg-37" value="&lt;p style=&quot;margin-top: 0pt; margin-bottom: 0pt; margin-left: 0in; direction: ltr; unicode-bidi: embed; font-size: 6px;&quot;&gt;&lt;i&gt;MQTT, OPC UA&lt;/i&gt;&lt;/p&gt;" style="text;html=1;strokeColor=none;fillColor=none;align=center;verticalAlign=middle;whiteSpace=wrap;rounded=0;fontFamily=Helvetica;fontSize=6;" parent="uWiy1Z3-CHDcQIck3Mmg-1" vertex="1">
          <mxGeometry x="820" y="715" width="96" height="10" as="geometry" />
        </mxCell>
        <mxCell id="_YNyTzP73_17Jnxu043o-7" value="&lt;p style=&quot;margin-top: 0pt; margin-bottom: 0pt; margin-left: 0in; direction: ltr; unicode-bidi: embed; font-size: 7px;&quot;&gt;&lt;b style=&quot;font-size: 7px;&quot;&gt;Data At Rest&lt;span style=&quot;font-size: 7px;&quot;&gt;&lt;br style=&quot;font-size: 7px;&quot;&gt;&lt;/span&gt;&lt;/b&gt;&lt;/p&gt;&lt;p style=&quot;margin-top: 0pt; margin-bottom: 0pt; margin-left: 0in; direction: ltr; unicode-bidi: embed; font-size: 7px;&quot;&gt;&lt;i style=&quot;font-size: 7px;&quot;&gt;&lt;span style=&quot;font-size: 7px;&quot;&gt;DB connection&lt;/span&gt;&lt;/i&gt;&lt;/p&gt;" style="text;html=1;strokeColor=none;fillColor=none;align=center;verticalAlign=middle;whiteSpace=wrap;rounded=0;fontFamily=Helvetica;fontSize=7;" parent="uWiy1Z3-CHDcQIck3Mmg-1" vertex="1">
          <mxGeometry x="695.5" y="390" width="80.93" height="20" as="geometry" />
        </mxCell>
        <mxCell id="_YNyTzP73_17Jnxu043o-8" value="&lt;p style=&quot;margin-top: 0pt; margin-bottom: 0pt; margin-left: 0in; direction: ltr; unicode-bidi: embed; font-size: 7px;&quot;&gt;&lt;b style=&quot;font-size: 7px;&quot;&gt;NGSI&lt;/b&gt;&lt;/p&gt;" style="text;html=1;strokeColor=none;fillColor=none;align=center;verticalAlign=middle;whiteSpace=wrap;rounded=0;fontFamily=Helvetica;fontSize=7;" parent="uWiy1Z3-CHDcQIck3Mmg-1" vertex="1">
          <mxGeometry x="644" y="410" width="40.32" height="20" as="geometry" />
        </mxCell>
      </root>
    </mxGraphModel>
  </diagram>
</mxfile>
